<svg width="118" height="29" viewBox="0 0 118 29" fill="none" xmlns="http://www.w3.org/2000/svg">
<path d="M18.344 22.384V28H1.535V22.384H7.034V6.199C6.748 6.589 6.228 7.057 5.474 7.603C4.72 8.123 3.901 8.578 3.017 8.968C2.133 9.358 1.34 9.553 0.638 9.553V3.82C1.34 3.82 2.055 3.638 2.783 3.274C3.537 2.91 4.226 2.494 4.85 2.026C5.474 1.532 5.981 1.103 6.371 0.738998C6.787 0.348998 7.008 0.127999 7.034 0.0759992H13.391V22.384H18.344ZM29.5985 28.234C27.4925 28.234 25.6465 27.896 24.0605 27.22C22.4745 26.518 21.1875 25.53 20.1995 24.256L23.4365 19.849C24.0085 20.577 24.7755 21.201 25.7375 21.721C26.7255 22.241 27.9215 22.501 29.3255 22.501C30.7815 22.501 31.8995 22.228 32.6795 21.682C33.4855 21.136 33.8885 20.343 33.8885 19.303C33.8885 17.015 31.8735 15.871 27.8435 15.871H26.5955V11.386H27.9215C29.5075 11.386 30.7815 11.1 31.7435 10.528C32.7055 9.956 33.1865 9.15 33.1865 8.11C33.1865 7.226 32.8485 6.537 32.1725 6.043C31.5225 5.549 30.7035 5.302 29.7155 5.302C28.5715 5.302 27.5445 5.575 26.6345 6.121C25.7505 6.667 25.0355 7.408 24.4895 8.344L20.4725 3.742C21.0705 2.988 21.8765 2.338 22.8905 1.792C23.9305 1.22 25.0875 0.777999 26.3615 0.465999C27.6355 0.153998 28.9485 -0.00200212 30.3005 -0.00200212C32.1985 -0.00200212 33.8625 0.296998 35.2925 0.894998C36.7225 1.493 37.8405 2.325 38.6465 3.391C39.4525 4.457 39.8555 5.692 39.8555 7.096C39.8555 8.63 39.3745 9.982 38.4125 11.152C37.4765 12.296 36.2415 13.037 34.7075 13.375C36.3715 13.661 37.7235 14.454 38.7635 15.754C39.8295 17.054 40.3625 18.601 40.3625 20.395C40.3625 22.033 39.9075 23.437 38.9975 24.607C38.0875 25.777 36.8265 26.674 35.2145 27.298C33.6025 27.922 31.7305 28.234 29.5985 28.234ZM55.8041 28.39C53.8021 28.39 52.0341 27.961 50.5001 27.103C48.9661 26.219 47.6791 25.088 46.6391 23.71C45.6251 22.306 44.8581 20.785 44.3381 19.147C43.8181 17.509 43.5581 15.91 43.5581 14.35C43.5581 12.686 43.8311 11.022 44.3771 9.358C44.9491 7.694 45.7681 6.186 46.8341 4.834C47.9001 3.456 49.1871 2.364 50.6951 1.558C52.2031 0.725999 53.9061 0.309999 55.8041 0.309999C57.8321 0.309999 59.6131 0.751998 61.1471 1.636C62.6811 2.52 63.9551 3.664 64.9691 5.068C66.0091 6.472 66.7891 7.993 67.3091 9.631C67.8291 11.269 68.0891 12.842 68.0891 14.35C68.0891 16.04 67.8031 17.717 67.2311 19.381C66.6851 21.019 65.8791 22.527 64.8131 23.905C63.7471 25.257 62.4471 26.349 60.9131 27.181C59.4051 27.987 57.7021 28.39 55.8041 28.39ZM50.0321 14.35C50.0321 15.312 50.1491 16.287 50.3831 17.275C50.6171 18.263 50.9681 19.173 51.4361 20.005C51.9041 20.811 52.5021 21.461 53.2301 21.955C53.9581 22.449 54.8161 22.696 55.8041 22.696C56.8441 22.696 57.7281 22.436 58.4561 21.916C59.2101 21.37 59.8081 20.681 60.2501 19.849C60.7181 18.991 61.0561 18.081 61.2641 17.119C61.4981 16.157 61.6151 15.234 61.6151 14.35C61.6151 13.388 61.4981 12.413 61.2641 11.425C61.0301 10.437 60.6661 9.54 60.1721 8.734C59.7041 7.902 59.1061 7.239 58.3781 6.745C57.6501 6.251 56.7921 6.004 55.8041 6.004C54.7901 6.004 53.9061 6.277 53.1521 6.823C52.4241 7.343 51.8261 8.032 51.3581 8.89C50.9161 9.722 50.5781 10.619 50.3441 11.581C50.1361 12.543 50.0321 13.466 50.0321 14.35ZM94.1033 28V11.503L88.1363 23.515H84.6263L78.6593 11.503V28H72.2633V0.309999H79.2053L86.3813 14.779L93.5963 0.309999H100.499V28H94.1033ZM117.946 11.659V16.651H114.241V20.707H108.625V16.651H104.959V11.659H108.625V7.603H114.241V11.659H117.946Z" fill="#F95C19"/>
</svg>
