<svg width="62" height="29" viewBox="0 0 62 29" fill="none" xmlns="http://www.w3.org/2000/svg">
<path d="M0.31934 28C0.31934 25.868 0.46234 24.074 0.74834 22.618C1.06034 21.162 1.61934 19.914 2.42534 18.874C3.23134 17.834 4.37534 16.859 5.85734 15.949C6.71534 15.429 7.59934 14.935 8.50934 14.467C9.44534 13.973 10.3163 13.466 11.1223 12.946C11.9283 12.4 12.5783 11.789 13.0723 11.113C13.5923 10.411 13.8523 9.605 13.8523 8.695C13.8523 7.655 13.5403 6.875 12.9163 6.355C12.3183 5.809 11.5123 5.536 10.4983 5.536C9.25034 5.536 8.06734 5.874 6.94934 6.55C5.85734 7.2 4.96034 7.889 4.25834 8.617L0.35834 4.483C0.93034 3.833 1.73634 3.157 2.77634 2.455C3.84234 1.753 5.09034 1.168 6.52034 0.699998C7.97634 0.231998 9.58834 -0.00200212 11.3563 -0.00200212C14.4243 -0.00200212 16.7903 0.764998 18.4543 2.299C20.1183 3.807 20.9503 5.809 20.9503 8.305C20.9503 9.761 20.6643 11.022 20.0923 12.088C19.5463 13.154 18.8053 14.09 17.8693 14.896C16.9333 15.676 15.8933 16.417 14.7493 17.119C13.1893 18.003 11.9803 18.744 11.1223 19.342C10.2903 19.94 9.65334 20.473 9.21134 20.941C8.76934 21.409 8.39234 21.89 8.08034 22.384H20.9893V28H0.31934ZM45.1358 18.679C45.1358 20.499 44.6808 22.15 43.7708 23.632C42.8868 25.088 41.6648 26.245 40.1048 27.103C38.5708 27.961 36.8418 28.39 34.9178 28.39C31.6938 28.39 29.1718 27.233 27.3518 24.919C25.5318 22.605 24.6218 19.381 24.6218 15.247C24.6218 12.023 25.0638 9.28 25.9478 7.018C26.8318 4.756 28.0798 3.04 29.6918 1.87C31.3298 0.673999 33.2798 0.0759992 35.5418 0.0759992C37.2318 0.0759992 38.8178 0.426999 40.2998 1.129C41.7818 1.831 43.0818 2.845 44.1998 4.171L40.6898 8.149C40.0398 7.317 39.2598 6.667 38.3498 6.199C37.4398 5.731 36.4648 5.497 35.4248 5.497C33.9168 5.497 32.7078 6.056 31.7978 7.174C30.8878 8.266 30.4068 9.8 30.3548 11.776C31.4728 10.294 33.1758 9.553 35.4638 9.553C37.2838 9.553 38.9218 9.956 40.3778 10.762C41.8598 11.568 43.0168 12.66 43.8488 14.038C44.7068 15.416 45.1358 16.963 45.1358 18.679ZM34.9178 23.125C35.6718 23.125 36.3738 22.93 37.0238 22.54C37.6738 22.124 38.1938 21.578 38.5838 20.902C38.9998 20.226 39.2078 19.485 39.2078 18.679C39.2078 17.509 38.7788 16.521 37.9208 15.715C37.0888 14.883 36.0878 14.467 34.9178 14.467C33.7218 14.467 32.7078 14.883 31.8758 15.715C31.0438 16.521 30.6278 17.509 30.6278 18.679C30.6278 19.485 30.8228 20.226 31.2128 20.902C31.6288 21.578 32.1488 22.124 32.7728 22.54C33.4228 22.93 34.1378 23.125 34.9178 23.125ZM61.4534 11.659V16.651H57.7484V20.707H52.1324V16.651H48.4664V11.659H52.1324V7.603H57.7484V11.659H61.4534Z" fill="#F95C19"/>
</svg>
