<svg width="112" height="29" viewBox="0 0 112 29" fill="none" xmlns="http://www.w3.org/2000/svg">
<path d="M21.191 18.679C21.191 20.499 20.736 22.15 19.826 23.632C18.942 25.088 17.72 26.245 16.16 27.103C14.626 27.961 12.897 28.39 10.973 28.39C7.749 28.39 5.227 27.233 3.407 24.919C1.587 22.605 0.677 19.381 0.677 15.247C0.677 12.023 1.119 9.28 2.003 7.018C2.887 4.756 4.135 3.04 5.747 1.87C7.385 0.673999 9.335 0.0759992 11.597 0.0759992C13.287 0.0759992 14.873 0.426999 16.355 1.129C17.837 1.831 19.137 2.845 20.255 4.171L16.745 8.149C16.095 7.317 15.315 6.667 14.405 6.199C13.495 5.731 12.52 5.497 11.48 5.497C9.972 5.497 8.763 6.056 7.853 7.174C6.943 8.266 6.462 9.8 6.41 11.776C7.528 10.294 9.231 9.553 11.519 9.553C13.339 9.553 14.977 9.956 16.433 10.762C17.915 11.568 19.072 12.66 19.904 14.038C20.762 15.416 21.191 16.963 21.191 18.679ZM10.973 23.125C11.727 23.125 12.429 22.93 13.079 22.54C13.729 22.124 14.249 21.578 14.639 20.902C15.055 20.226 15.263 19.485 15.263 18.679C15.263 17.509 14.834 16.521 13.976 15.715C13.144 14.883 12.143 14.467 10.973 14.467C9.777 14.467 8.763 14.883 7.931 15.715C7.099 16.521 6.683 17.509 6.683 18.679C6.683 19.485 6.878 20.226 7.268 20.902C7.684 21.578 8.204 22.124 8.828 22.54C9.478 22.93 10.193 23.125 10.973 23.125ZM44.8015 19.615C44.8015 21.383 44.3335 22.93 43.3975 24.256C42.4615 25.556 41.2135 26.57 39.6535 27.298C38.1195 28 36.4165 28.351 34.5445 28.351C32.6985 28.351 30.9955 27.987 29.4355 27.259C27.9015 26.505 26.6665 25.452 25.7305 24.1C24.7945 22.748 24.3265 21.175 24.3265 19.381C24.3265 18.393 24.5215 17.509 24.9115 16.729C25.3015 15.923 25.7955 15.234 26.3935 14.662C26.9915 14.064 27.5895 13.583 28.1875 13.219C27.3295 12.751 26.6015 12.062 26.0035 11.152C25.4315 10.242 25.1455 9.28 25.1455 8.266C25.1455 6.966 25.4315 5.822 26.0035 4.834C26.5755 3.846 27.3295 3.014 28.2655 2.338C29.2015 1.662 30.2155 1.155 31.3075 0.816999C32.3995 0.478999 33.4785 0.309999 34.5445 0.309999C35.6105 0.309999 36.6895 0.478999 37.7815 0.816999C38.8995 1.155 39.9265 1.662 40.8625 2.338C41.7985 2.988 42.5525 3.807 43.1245 4.795C43.7225 5.757 44.0215 6.888 44.0215 8.188C44.0215 9.202 43.7095 10.19 43.0855 11.152C42.4875 12.088 41.7595 12.777 40.9015 13.219C41.8635 13.791 42.7475 14.623 43.5535 15.715C44.3855 16.781 44.8015 18.081 44.8015 19.615ZM31.4635 8.383C31.4635 9.293 31.7885 9.982 32.4385 10.45C33.1145 10.892 33.8165 11.113 34.5445 11.113C35.2725 11.113 35.9745 10.892 36.6505 10.45C37.3265 9.982 37.6645 9.293 37.6645 8.383C37.6645 7.629 37.3525 7.018 36.7285 6.55C36.1305 6.056 35.4025 5.809 34.5445 5.809C33.6865 5.809 32.9585 6.056 32.3605 6.55C31.7625 7.044 31.4635 7.655 31.4635 8.383ZM38.4835 19.225C38.4835 18.133 38.0805 17.288 37.2745 16.69C36.4945 16.092 35.5845 15.793 34.5445 15.793C33.4785 15.793 32.5555 16.105 31.7755 16.729C31.0215 17.353 30.6445 18.198 30.6445 19.264C30.6445 20.278 31.0345 21.11 31.8145 21.76C32.6205 22.384 33.5435 22.696 34.5835 22.696C35.6235 22.696 36.5335 22.371 37.3135 21.721C38.0935 21.045 38.4835 20.213 38.4835 19.225ZM47.899 9.787C47.899 7.967 48.341 6.329 49.225 4.873C50.135 3.417 51.357 2.26 52.891 1.402C54.451 0.517999 56.206 0.0759992 58.156 0.0759992C61.38 0.0759992 63.902 1.233 65.722 3.547C67.542 5.861 68.452 9.085 68.452 13.219C68.452 16.443 68.01 19.186 67.126 21.448C66.242 23.71 64.981 25.439 63.343 26.635C61.705 27.805 59.768 28.39 57.532 28.39C55.816 28.39 54.217 28.039 52.735 27.337C51.253 26.635 49.953 25.621 48.835 24.295L52.345 20.317C52.995 21.149 53.775 21.799 54.685 22.267C55.621 22.735 56.596 22.969 57.61 22.969C59.144 22.969 60.353 22.423 61.237 21.331C62.147 20.213 62.628 18.666 62.68 16.69C61.588 18.198 59.898 18.952 57.61 18.952C55.764 18.952 54.113 18.549 52.657 17.743C51.201 16.937 50.044 15.845 49.186 14.467C48.328 13.063 47.899 11.503 47.899 9.787ZM58.156 5.341C57.376 5.341 56.661 5.549 56.011 5.965C55.361 6.355 54.841 6.888 54.451 7.564C54.061 8.24 53.866 8.981 53.866 9.787C53.866 10.957 54.282 11.958 55.114 12.79C55.972 13.596 56.986 13.999 58.156 13.999C59.326 13.999 60.327 13.596 61.159 12.79C62.017 11.958 62.446 10.957 62.446 9.787C62.446 8.981 62.238 8.24 61.822 7.564C61.432 6.888 60.912 6.355 60.262 5.965C59.612 5.549 58.91 5.341 58.156 5.341ZM72.7584 28V0.309999H79.1544V12.244L89.2944 0.309999H96.4704L86.0964 12.673L97.1724 28H89.8404L82.0404 16.885L79.1544 19.849V28H72.7584ZM111.357 11.659V16.651H107.652V20.707H102.036V16.651H98.3702V11.659H102.036V7.603H107.652V11.659H111.357Z" fill="#F95C19"/>
</svg>
