<svg width="178" height="49" viewBox="0 0 178 49" fill="none" xmlns="http://www.w3.org/2000/svg">
<rect width="178" height="49" rx="5" fill="#F95C19"/>
<path d="M21.44 27.64V20.56C21.44 18.32 22.56 17.2 24.8 17.2H30.58L31.92 18.24V19.8H24.92C24.52 19.8 24.32 20 24.32 20.4V27.8C24.32 28.2 24.52 28.4 24.92 28.4H29.44V25.2H26.8V22.6H32.32V31H24.8C22.56 31 21.44 29.88 21.44 27.64ZM34.8347 27.76V23.68C34.8347 21.52 35.9147 20.44 38.0747 20.44H40.6747C42.8347 20.44 43.9147 21.52 43.9147 23.68V26.76H37.5947V27.96C37.5947 28.3867 37.808 28.6 38.2347 28.6H43.5147V30.1L42.3147 31H38.0747C35.9147 31 34.8347 29.92 34.8347 27.76ZM37.5947 24.6H41.1547V23.48C41.1547 23.0533 40.9414 22.84 40.5147 22.84H38.2347C37.808 22.84 37.5947 23.0533 37.5947 23.48V24.6ZM46.5553 27.76V17.2H49.3153V20.44H52.7553V22.84H49.3153V27.96C49.3153 28.3867 49.5286 28.6 49.9553 28.6H52.9553V30.1L51.7553 31H49.7953C47.6353 31 46.5553 29.92 46.5553 27.76ZM59.5566 30.1V28.6H64.1566C64.6099 28.6 64.8366 28.3467 64.8366 27.84C64.8366 27.32 64.6366 27.0267 64.2366 26.96L62.0766 26.6C60.3966 26.32 59.5566 25.3467 59.5566 23.68C59.5566 21.52 60.6366 20.44 62.7966 20.44H65.8966L67.0966 21.34V22.84H62.9766C62.5232 22.84 62.2966 23.0933 62.2966 23.6C62.2966 24.12 62.4966 24.4133 62.8966 24.48L65.0566 24.84C66.7366 25.12 67.5766 26.0933 67.5766 27.76C67.5766 29.92 66.4966 31 64.3366 31H60.7566L59.5566 30.1ZM69.9928 27.76V17.2H72.7528V20.44H76.1928V22.84H72.7528V27.96C72.7528 28.3867 72.9661 28.6 73.3928 28.6H76.3928V30.1L75.1928 31H73.2328C71.0728 31 69.9928 29.92 69.9928 27.76ZM81.2294 31C79.0694 31 77.9894 29.94 77.9894 27.82C77.9894 25.7 79.0694 24.64 81.2294 24.64H83.9894V23.48C83.9894 23.0533 83.776 22.84 83.3494 22.84H79.1094V21.34L80.3094 20.44H83.5094C85.6694 20.44 86.7494 21.52 86.7494 23.68V31H81.2294ZM80.7494 27.96C80.7494 28.3867 80.9627 28.6 81.3894 28.6H83.9894V26.8H81.3894C80.9627 26.8 80.7494 27.0133 80.7494 27.44V27.96ZM89.4655 31V21.8C89.9588 20.8933 90.9055 20.44 92.3055 20.44H94.4655L95.6655 21.34V22.84H92.9655C92.6055 22.84 92.3588 22.9267 92.2255 23.1V31H89.4655ZM97.5514 27.76V17.2H100.311V20.44H103.751V22.84H100.311V27.96C100.311 28.3867 100.525 28.6 100.951 28.6H103.951V30.1L102.751 31H100.791C98.6314 31 97.5514 29.92 97.5514 27.76ZM105.948 27.76V23.68C105.948 21.52 107.028 20.44 109.188 20.44H111.788C113.948 20.44 115.028 21.52 115.028 23.68V26.76H108.708V27.96C108.708 28.3867 108.921 28.6 109.348 28.6H114.628V30.1L113.428 31H109.188C107.028 31 105.948 29.92 105.948 27.76ZM108.708 24.6H112.268V23.48C112.268 23.0533 112.055 22.84 111.628 22.84H109.348C108.921 22.84 108.708 23.0533 108.708 23.48V24.6ZM117.589 27.76V23.68C117.589 21.52 118.669 20.44 120.829 20.44H123.909V16.2H126.669V31H120.829C118.669 31 117.589 29.92 117.589 27.76ZM120.349 27.96C120.349 28.3867 120.562 28.6 120.989 28.6H123.909V22.84H120.989C120.562 22.84 120.349 23.0533 120.349 23.48V27.96ZM145.137 16.1172C144.746 16.5078 144.785 17.0938 145.137 17.4844L149.863 21.9375H138.652C138.105 21.9375 137.715 22.3672 137.715 22.875V24.125C137.715 24.6719 138.105 25.0625 138.652 25.0625H149.863L145.137 29.5547C144.785 29.9453 144.785 30.5312 145.137 30.9219L145.996 31.7812C146.387 32.1328 146.973 32.1328 147.324 31.7812L154.941 24.1641C155.293 23.8125 155.293 23.2266 154.941 22.8359L147.324 15.2578C146.973 14.9062 146.387 14.9062 145.996 15.2578L145.137 16.1172Z" fill="white"/>
</svg>
