<svg width="157" height="16" viewBox="0 0 157 16" fill="none" xmlns="http://www.w3.org/2000/svg">
<path d="M7.02258 15.1C6.08925 15.1 5.21591 14.9133 4.40258 14.54C3.58924 14.1667 2.86924 13.6533 2.24258 13C1.62924 12.3333 1.14924 11.56 0.802578 10.68C0.455911 9.8 0.282578 8.84667 0.282578 7.82C0.282578 6.84667 0.455911 5.93333 0.802578 5.08C1.14924 4.21333 1.63591 3.45333 2.26258 2.8C2.88924 2.14667 3.62258 1.63333 4.46258 1.26C5.30258 0.886666 6.21591 0.699999 7.20258 0.699999C8.52258 0.699999 9.66258 0.986666 10.6226 1.56C11.5826 2.12 12.3026 2.86667 12.7826 3.8L10.7226 5.32C10.3626 4.62667 9.85591 4.09333 9.20258 3.72C8.56258 3.33333 7.86258 3.14 7.10258 3.14C6.30258 3.14 5.59591 3.36 4.98258 3.8C4.38258 4.24 3.90925 4.82 3.56258 5.54C3.22924 6.26 3.06258 7.04667 3.06258 7.9C3.06258 8.79333 3.24258 9.6 3.60258 10.32C3.96258 11.04 4.45591 11.6133 5.08258 12.04C5.72258 12.4533 6.44925 12.66 7.26258 12.66C8.63591 12.66 9.87591 12.0133 10.9826 10.72V9.72H8.12258V7.7H13.2626V15H10.9826V13.4C9.83591 14.5333 8.51591 15.1 7.02258 15.1ZM20.1948 15.2C19.0481 15.2 18.0614 14.9533 17.2348 14.46C16.4214 13.9533 15.7948 13.2867 15.3548 12.46C14.9148 11.6333 14.6948 10.74 14.6948 9.78C14.6948 8.80667 14.9148 7.90667 15.3548 7.08C15.8081 6.25333 16.4414 5.59333 17.2548 5.1C18.0814 4.59333 19.0614 4.34 20.1948 4.34C21.3281 4.34 22.3014 4.59333 23.1148 5.1C23.9414 5.59333 24.5748 6.25333 25.0148 7.08C25.4548 7.90667 25.6748 8.80667 25.6748 9.78C25.6748 10.74 25.4548 11.6333 25.0148 12.46C24.5748 13.2867 23.9414 13.9533 23.1148 14.46C22.3014 14.9533 21.3281 15.2 20.1948 15.2ZM17.4548 9.78C17.4548 10.3933 17.5748 10.94 17.8148 11.42C18.0548 11.8867 18.3814 12.2533 18.7948 12.52C19.2081 12.7867 19.6748 12.92 20.1948 12.92C20.7014 12.92 21.1614 12.7867 21.5748 12.52C21.9881 12.24 22.3148 11.8667 22.5548 11.4C22.8081 10.92 22.9348 10.3733 22.9348 9.76C22.9348 9.16 22.8081 8.62667 22.5548 8.16C22.3148 7.68 21.9881 7.30667 21.5748 7.04C21.1614 6.76 20.7014 6.62 20.1948 6.62C19.6748 6.62 19.2081 6.76 18.7948 7.04C18.3814 7.30667 18.0548 7.68 17.8148 8.16C17.5748 8.62667 17.4548 9.16667 17.4548 9.78ZM32.3237 15.2C31.177 15.2 30.1903 14.9533 29.3637 14.46C28.5503 13.9533 27.9237 13.2867 27.4837 12.46C27.0437 11.6333 26.8237 10.74 26.8237 9.78C26.8237 8.80667 27.0437 7.90667 27.4837 7.08C27.937 6.25333 28.5703 5.59333 29.3837 5.1C30.2103 4.59333 31.1903 4.34 32.3237 4.34C33.457 4.34 34.4303 4.59333 35.2437 5.1C36.0703 5.59333 36.7037 6.25333 37.1437 7.08C37.5837 7.90667 37.8037 8.80667 37.8037 9.78C37.8037 10.74 37.5837 11.6333 37.1437 12.46C36.7037 13.2867 36.0703 13.9533 35.2437 14.46C34.4303 14.9533 33.457 15.2 32.3237 15.2ZM29.5837 9.78C29.5837 10.3933 29.7037 10.94 29.9437 11.42C30.1837 11.8867 30.5103 12.2533 30.9237 12.52C31.337 12.7867 31.8037 12.92 32.3237 12.92C32.8303 12.92 33.2903 12.7867 33.7037 12.52C34.117 12.24 34.4437 11.8667 34.6837 11.4C34.937 10.92 35.0637 10.3733 35.0637 9.76C35.0637 9.16 34.937 8.62667 34.6837 8.16C34.4437 7.68 34.117 7.30667 33.7037 7.04C33.2903 6.76 32.8303 6.62 32.3237 6.62C31.8037 6.62 31.337 6.76 30.9237 7.04C30.5103 7.30667 30.1837 7.68 29.9437 8.16C29.7037 8.62667 29.5837 9.16667 29.5837 9.78ZM38.9726 9.76C38.9726 8.76 39.1726 7.84667 39.5726 7.02C39.9726 6.19333 40.5259 5.54 41.2326 5.06C41.9392 4.58 42.7459 4.34 43.6526 4.34C44.4259 4.34 45.1192 4.53333 45.7326 4.92C46.3592 5.29333 46.8459 5.77333 47.1926 6.36V0.4H49.8726V12C49.8726 12.2933 49.9192 12.5 50.0126 12.62C50.1059 12.7267 50.2659 12.7933 50.4926 12.82V15C50.0126 15.0933 49.6326 15.14 49.3526 15.14C48.8726 15.14 48.4726 15.02 48.1526 14.78C47.8459 14.54 47.6726 14.2267 47.6326 13.84L47.5926 13.18C47.2059 13.8333 46.6792 14.3333 46.0126 14.68C45.3592 15.0267 44.6726 15.2 43.9526 15.2C42.9792 15.2 42.1192 14.96 41.3726 14.48C40.6259 13.9867 40.0392 13.3333 39.6126 12.52C39.1859 11.6933 38.9726 10.7733 38.9726 9.76ZM47.1926 11.16V8.66C46.9792 8.07333 46.6126 7.58667 46.0926 7.2C45.5726 6.81333 45.0392 6.62 44.4926 6.62C43.9459 6.62 43.4659 6.77333 43.0526 7.08C42.6392 7.37333 42.3192 7.76667 42.0926 8.26C41.8659 8.74 41.7526 9.26 41.7526 9.82C41.7526 10.3933 41.8792 10.92 42.1326 11.4C42.3859 11.8667 42.7259 12.24 43.1526 12.52C43.5926 12.7867 44.0926 12.92 44.6526 12.92C45.1592 12.92 45.6592 12.7533 46.1526 12.42C46.6592 12.0867 47.0059 11.6667 47.1926 11.16ZM56.3632 15.2C55.4699 15.2 54.6165 15.0533 53.8032 14.76C52.9899 14.4667 52.2899 14.0333 51.7032 13.46L52.6632 11.72C53.2899 12.2267 53.9032 12.6 54.5032 12.84C55.1032 13.08 55.6899 13.2 56.2632 13.2C56.7832 13.2 57.1965 13.1067 57.5032 12.92C57.8232 12.7333 57.9832 12.4533 57.9832 12.08C57.9832 11.6933 57.7899 11.4333 57.4032 11.3C57.0165 11.1533 56.4765 10.9733 55.7832 10.76C55.0099 10.52 54.3632 10.2733 53.8432 10.02C53.3232 9.76667 52.9299 9.46 52.6632 9.1C52.4099 8.74 52.2832 8.27333 52.2832 7.7C52.2832 6.67333 52.6699 5.85333 53.4432 5.24C54.2165 4.62667 55.2432 4.32 56.5232 4.32C57.2699 4.32 57.9765 4.44 58.6432 4.68C59.3099 4.90667 59.9165 5.28 60.4632 5.8L59.3832 7.5C58.3565 6.7 57.3632 6.3 56.4032 6.3C55.9765 6.3 55.5965 6.38 55.2632 6.54C54.9432 6.7 54.7832 6.98 54.7832 7.38C54.7832 7.75333 54.9365 8.02 55.2432 8.18C55.5632 8.34 56.0432 8.51333 56.6832 8.7C57.5099 8.95333 58.2099 9.2 58.7832 9.44C59.3699 9.68 59.8099 9.98667 60.1032 10.36C60.4099 10.7333 60.5632 11.24 60.5632 11.88C60.5632 12.92 60.1832 13.7333 59.4232 14.32C58.6632 14.9067 57.6432 15.2 56.3632 15.2ZM66.5507 9.76C66.5507 8.76 66.7507 7.84667 67.1507 7.02C67.5507 6.19333 68.104 5.54 68.8107 5.06C69.5174 4.58 70.324 4.34 71.2307 4.34C72.004 4.34 72.6974 4.53333 73.3107 4.92C73.9374 5.29333 74.424 5.77333 74.7707 6.36V0.4H77.4507V12C77.4507 12.2933 77.4974 12.5 77.5907 12.62C77.684 12.7267 77.844 12.7933 78.0707 12.82V15C77.5907 15.0933 77.2107 15.14 76.9307 15.14C76.4507 15.14 76.0507 15.02 75.7307 14.78C75.424 14.54 75.2507 14.2267 75.2107 13.84L75.1707 13.18C74.784 13.8333 74.2574 14.3333 73.5907 14.68C72.9374 15.0267 72.2507 15.2 71.5307 15.2C70.5574 15.2 69.6974 14.96 68.9507 14.48C68.204 13.9867 67.6174 13.3333 67.1907 12.52C66.764 11.6933 66.5507 10.7733 66.5507 9.76ZM74.7707 11.16V8.66C74.5574 8.07333 74.1907 7.58667 73.6707 7.2C73.1507 6.81333 72.6174 6.62 72.0707 6.62C71.524 6.62 71.044 6.77333 70.6307 7.08C70.2174 7.37333 69.8974 7.76667 69.6707 8.26C69.444 8.74 69.3307 9.26 69.3307 9.82C69.3307 10.3933 69.4574 10.92 69.7107 11.4C69.964 11.8667 70.304 12.24 70.7307 12.52C71.1707 12.7867 71.6707 12.92 72.2307 12.92C72.7374 12.92 73.2374 12.7533 73.7307 12.42C74.2374 12.0867 74.584 11.6667 74.7707 11.16ZM84.9413 15.2C83.808 15.2 82.828 14.9533 82.0013 14.46C81.188 13.9667 80.5547 13.3133 80.1013 12.5C79.648 11.6733 79.4213 10.78 79.4213 9.82C79.4213 8.83333 79.6413 7.92667 80.0813 7.1C80.5347 6.26 81.1747 5.59333 82.0013 5.1C82.828 4.59333 83.8147 4.34 84.9613 4.34C86.108 4.34 87.088 4.59333 87.9013 5.1C88.7147 5.59333 89.3347 6.25333 89.7613 7.08C90.2013 7.89333 90.4213 8.77333 90.4213 9.72C90.4213 10.0667 90.4013 10.3667 90.3613 10.62H82.2613C82.328 11.4333 82.628 12.0733 83.1613 12.54C83.708 13.0067 84.3347 13.24 85.0413 13.24C85.5747 13.24 86.0747 13.1133 86.5413 12.86C87.0213 12.5933 87.348 12.2467 87.5213 11.82L89.8213 12.46C89.4347 13.26 88.8147 13.92 87.9613 14.44C87.108 14.9467 86.1013 15.2 84.9413 15.2ZM82.2013 8.92H87.6813C87.6013 8.13333 87.3013 7.5 86.7813 7.02C86.2747 6.52667 85.6547 6.28 84.9213 6.28C84.2013 6.28 83.5813 6.52667 83.0613 7.02C82.5547 7.5 82.268 8.13333 82.2013 8.92ZM92.034 0.4H94.714V11.64C94.714 12.1333 94.794 12.46 94.954 12.62C95.114 12.78 95.334 12.86 95.614 12.86C95.8273 12.86 96.0473 12.8333 96.274 12.78C96.5007 12.7267 96.7007 12.66 96.874 12.58L97.234 14.62C96.874 14.7933 96.454 14.9267 95.974 15.02C95.494 15.1133 95.0607 15.16 94.674 15.16C93.834 15.16 93.1807 14.94 92.714 14.5C92.2607 14.0467 92.034 13.4067 92.034 12.58V0.4ZM98.4016 3.06V0.4H101.082V3.06H98.4016ZM98.4016 15V4.52H101.082V15H98.4016ZM106.319 15L102.459 4.52H105.239L107.879 12.56L110.539 4.52H113.079L109.239 15H106.319ZM119.004 15.2C117.87 15.2 116.89 14.9533 116.064 14.46C115.25 13.9667 114.617 13.3133 114.164 12.5C113.71 11.6733 113.484 10.78 113.484 9.82C113.484 8.83333 113.704 7.92667 114.144 7.1C114.597 6.26 115.237 5.59333 116.064 5.1C116.89 4.59333 117.877 4.34 119.024 4.34C120.17 4.34 121.15 4.59333 121.964 5.1C122.777 5.59333 123.397 6.25333 123.824 7.08C124.264 7.89333 124.484 8.77333 124.484 9.72C124.484 10.0667 124.464 10.3667 124.424 10.62H116.324C116.39 11.4333 116.69 12.0733 117.224 12.54C117.77 13.0067 118.397 13.24 119.104 13.24C119.637 13.24 120.137 13.1133 120.604 12.86C121.084 12.5933 121.41 12.2467 121.584 11.82L123.884 12.46C123.497 13.26 122.877 13.92 122.024 14.44C121.17 14.9467 120.164 15.2 119.004 15.2ZM116.264 8.92H121.744C121.664 8.13333 121.364 7.5 120.844 7.02C120.337 6.52667 119.717 6.28 118.984 6.28C118.264 6.28 117.644 6.52667 117.124 7.02C116.617 7.5 116.33 8.13333 116.264 8.92ZM132.356 6.84C131.543 6.84 130.816 7 130.176 7.32C129.536 7.62667 129.076 8.07333 128.796 8.66V15H126.116V4.52H128.576V6.76C128.936 6.04 129.403 5.47333 129.976 5.06C130.563 4.64667 131.176 4.42 131.816 4.38C132.096 4.38 132.276 4.38667 132.356 4.4V6.84ZM138.574 15.2C137.441 15.2 136.461 14.9533 135.634 14.46C134.821 13.9667 134.187 13.3133 133.734 12.5C133.281 11.6733 133.054 10.78 133.054 9.82C133.054 8.83333 133.274 7.92667 133.714 7.1C134.167 6.26 134.807 5.59333 135.634 5.1C136.461 4.59333 137.447 4.34 138.594 4.34C139.741 4.34 140.721 4.59333 141.534 5.1C142.347 5.59333 142.967 6.25333 143.394 7.08C143.834 7.89333 144.054 8.77333 144.054 9.72C144.054 10.0667 144.034 10.3667 143.994 10.62H135.894C135.961 11.4333 136.261 12.0733 136.794 12.54C137.341 13.0067 137.967 13.24 138.674 13.24C139.207 13.24 139.707 13.1133 140.174 12.86C140.654 12.5933 140.981 12.2467 141.154 11.82L143.454 12.46C143.067 13.26 142.447 13.92 141.594 14.44C140.741 14.9467 139.734 15.2 138.574 15.2ZM135.834 8.92H141.314C141.234 8.13333 140.934 7.5 140.414 7.02C139.907 6.52667 139.287 6.28 138.554 6.28C137.834 6.28 137.214 6.52667 136.694 7.02C136.187 7.5 135.901 8.13333 135.834 8.92ZM145.047 9.76C145.047 8.76 145.247 7.84667 145.647 7.02C146.047 6.19333 146.6 5.54 147.307 5.06C148.013 4.58 148.82 4.34 149.727 4.34C150.5 4.34 151.193 4.53333 151.807 4.92C152.433 5.29333 152.92 5.77333 153.267 6.36V0.4H155.947V12C155.947 12.2933 155.993 12.5 156.087 12.62C156.18 12.7267 156.34 12.7933 156.567 12.82V15C156.087 15.0933 155.707 15.14 155.427 15.14C154.947 15.14 154.547 15.02 154.227 14.78C153.92 14.54 153.747 14.2267 153.707 13.84L153.667 13.18C153.28 13.8333 152.753 14.3333 152.087 14.68C151.433 15.0267 150.747 15.2 150.027 15.2C149.053 15.2 148.193 14.96 147.447 14.48C146.7 13.9867 146.113 13.3333 145.687 12.52C145.26 11.6933 145.047 10.7733 145.047 9.76ZM153.267 11.16V8.66C153.053 8.07333 152.687 7.58667 152.167 7.2C151.647 6.81333 151.113 6.62 150.567 6.62C150.02 6.62 149.54 6.77333 149.127 7.08C148.713 7.37333 148.393 7.76667 148.167 8.26C147.94 8.74 147.827 9.26 147.827 9.82C147.827 10.3933 147.953 10.92 148.207 11.4C148.46 11.8667 148.8 12.24 149.227 12.52C149.667 12.7867 150.167 12.92 150.727 12.92C151.233 12.92 151.733 12.7533 152.227 12.42C152.733 12.0867 153.08 11.6667 153.267 11.16Z" fill="#464558"/>
</svg>
