<svg width="146" height="73" viewBox="0 0 146 73" fill="none" xmlns="http://www.w3.org/2000/svg">
<path d="M61.191 25.679C61.191 27.499 60.736 29.15 59.826 30.632C58.942 32.088 57.72 33.245 56.16 34.103C54.626 34.961 52.897 35.39 50.973 35.39C47.749 35.39 45.227 34.233 43.407 31.919C41.587 29.605 40.677 26.381 40.677 22.247C40.677 19.023 41.119 16.28 42.003 14.018C42.887 11.756 44.135 10.04 45.747 8.87C47.385 7.674 49.335 7.076 51.597 7.076C53.287 7.076 54.873 7.427 56.355 8.129C57.837 8.831 59.137 9.845 60.255 11.171L56.745 15.149C56.095 14.317 55.315 13.667 54.405 13.199C53.495 12.731 52.52 12.497 51.48 12.497C49.972 12.497 48.763 13.056 47.853 14.174C46.943 15.266 46.462 16.8 46.41 18.776C47.528 17.294 49.231 16.553 51.519 16.553C53.339 16.553 54.977 16.956 56.433 17.762C57.915 18.568 59.072 19.66 59.904 21.038C60.762 22.416 61.191 23.963 61.191 25.679ZM50.973 30.125C51.727 30.125 52.429 29.93 53.079 29.54C53.729 29.124 54.249 28.578 54.639 27.902C55.055 27.226 55.263 26.485 55.263 25.679C55.263 24.509 54.834 23.521 53.976 22.715C53.144 21.883 52.143 21.467 50.973 21.467C49.777 21.467 48.763 21.883 47.931 22.715C47.099 23.521 46.683 24.509 46.683 25.679C46.683 26.485 46.878 27.226 47.268 27.902C47.684 28.578 48.204 29.124 48.828 29.54C49.478 29.93 50.193 30.125 50.973 30.125ZM73.2575 35.351C71.2295 35.351 69.4095 34.948 67.7975 34.142C66.1855 33.336 64.9505 32.205 64.0925 30.749L67.6025 26.888C68.3305 27.824 69.2015 28.565 70.2155 29.111C71.2295 29.631 72.2565 29.891 73.2965 29.891C74.4925 29.891 75.4545 29.54 76.1825 28.838C76.9365 28.136 77.3135 27.213 77.3135 26.069C77.3135 24.951 76.9625 24.054 76.2605 23.378C75.5845 22.676 74.7135 22.325 73.6475 22.325C72.9455 22.325 72.2825 22.481 71.6585 22.793C71.0605 23.105 70.5925 23.547 70.2545 24.119H64.8335L68.0705 7.271H81.8375V12.965H72.5945L71.7755 17.684C71.9575 17.502 72.2695 17.346 72.7115 17.216C73.1795 17.06 73.7905 16.982 74.5445 16.982C76.3125 16.982 77.8855 17.359 79.2635 18.113C80.6415 18.867 81.7205 19.92 82.5005 21.272C83.3065 22.624 83.7095 24.171 83.7095 25.913C83.7095 27.785 83.2545 29.436 82.3445 30.866C81.4605 32.27 80.2255 33.375 78.6395 34.181C77.0795 34.961 75.2855 35.351 73.2575 35.351ZM99.9412 18.659V23.651H96.2362V27.707H90.6202V23.651H86.9542V18.659H90.6202V14.603H96.2362V18.659H99.9412Z" fill="#F95C19"/>
<path d="M11.2701 57.52C11.1501 57.3867 10.8967 57.2133 10.5101 57C10.1234 56.7733 9.65675 56.5733 9.11008 56.4C8.57675 56.2133 8.02341 56.12 7.45008 56.12C5.94341 56.12 5.19008 56.6533 5.19008 57.72C5.19008 58.1067 5.31008 58.4133 5.55008 58.64C5.79008 58.8667 6.15008 59.06 6.63008 59.22C7.11008 59.38 7.71008 59.5533 8.43008 59.74C9.36341 59.98 10.1701 60.26 10.8501 60.58C11.5434 60.9 12.0701 61.3267 12.4301 61.86C12.8034 62.38 12.9901 63.0733 12.9901 63.94C12.9901 64.9533 12.7434 65.7733 12.2501 66.4C11.7701 67.0133 11.1301 67.46 10.3301 67.74C9.53008 68.02 8.66341 68.16 7.73008 68.16C6.66341 68.16 5.60341 68 4.55008 67.68C3.51008 67.3467 2.58341 66.8933 1.77008 66.32L2.99008 63.94C3.11008 64.06 3.32341 64.22 3.63008 64.42C3.93674 64.6067 4.31008 64.8 4.75008 65C5.19008 65.1867 5.67008 65.3467 6.19008 65.48C6.71008 65.6133 7.23675 65.68 7.77008 65.68C9.29008 65.68 10.0501 65.1933 10.0501 64.22C10.0501 63.8067 9.89675 63.4733 9.59008 63.22C9.28341 62.9667 8.85008 62.7533 8.29008 62.58C7.74341 62.4067 7.10341 62.2133 6.37008 62C5.46341 61.7467 4.71008 61.4667 4.11008 61.16C3.52341 60.84 3.08341 60.4467 2.79008 59.98C2.49674 59.5 2.35008 58.8933 2.35008 58.16C2.35008 57.1867 2.57674 56.3733 3.03008 55.72C3.49674 55.0533 4.12341 54.5533 4.91008 54.22C5.69674 53.8733 6.57008 53.7 7.53008 53.7C8.51674 53.7 9.43674 53.86 10.2901 54.18C11.1434 54.5 11.8767 54.8667 12.4901 55.28L11.2701 57.52ZM20.8613 67.46C20.5013 67.62 20.0547 67.78 19.5213 67.94C19.0013 68.1 18.4613 68.18 17.9013 68.18C17.408 68.18 16.9547 68.0933 16.5413 67.92C16.128 67.7467 15.7947 67.4733 15.5413 67.1C15.3013 66.7133 15.1813 66.2133 15.1813 65.6V59.58H13.8013V57.52H15.1813V54.12H17.8613V57.52H20.0613V59.58H17.8613V64.7C17.8613 65.06 17.9547 65.32 18.1413 65.48C18.3413 65.64 18.5813 65.72 18.8613 65.72C19.1413 65.72 19.4147 65.6733 19.6813 65.58C19.948 65.4867 20.1613 65.4067 20.3213 65.34L20.8613 67.46ZM21.5371 64.9C21.5371 64.22 21.7238 63.6267 22.0971 63.12C22.4838 62.6 23.0171 62.2 23.6971 61.92C24.3771 61.64 25.1571 61.5 26.0371 61.5C26.4771 61.5 26.9238 61.54 27.3771 61.62C27.8304 61.6867 28.2238 61.7867 28.5571 61.92V61.36C28.5571 60.6933 28.3571 60.18 27.9571 59.82C27.5704 59.46 26.9904 59.28 26.2171 59.28C25.6438 59.28 25.0971 59.38 24.5771 59.58C24.0571 59.78 23.5104 60.0733 22.9371 60.46L22.0771 58.7C22.7704 58.2467 23.4771 57.9067 24.1971 57.68C24.9304 57.4533 25.6971 57.34 26.4971 57.34C27.9904 57.34 29.1504 57.7133 29.9771 58.46C30.8171 59.2067 31.2371 60.2733 31.2371 61.66V65C31.2371 65.2933 31.2838 65.5 31.3771 65.62C31.4704 65.7267 31.6371 65.7933 31.8771 65.82V68C31.6371 68.0533 31.4171 68.0867 31.2171 68.1C31.0304 68.1267 30.8704 68.14 30.7371 68.14C30.2038 68.14 29.7971 68.02 29.5171 67.78C29.2371 67.54 29.0704 67.2467 29.0171 66.9L28.9571 66.36C28.4904 66.96 27.9171 67.42 27.2371 67.74C26.5704 68.0467 25.8838 68.2 25.1771 68.2C24.4704 68.2 23.8438 68.06 23.2971 67.78C22.7504 67.4867 22.3171 67.0933 21.9971 66.6C21.6904 66.0933 21.5371 65.5267 21.5371 64.9ZM28.0571 65.44C28.3904 65.12 28.5571 64.8133 28.5571 64.52V63.46C27.8638 63.18 27.1638 63.04 26.4571 63.04C25.7504 63.04 25.1771 63.1933 24.7371 63.5C24.2971 63.7933 24.0771 64.1867 24.0771 64.68C24.0771 65.08 24.2371 65.44 24.5571 65.76C24.8771 66.08 25.3371 66.24 25.9371 66.24C26.3371 66.24 26.7238 66.1667 27.0971 66.02C27.4838 65.8733 27.8038 65.68 28.0571 65.44ZM39.9238 67.46C39.5638 67.62 39.1172 67.78 38.5838 67.94C38.0638 68.1 37.5238 68.18 36.9638 68.18C36.4705 68.18 36.0172 68.0933 35.6038 67.92C35.1905 67.7467 34.8572 67.4733 34.6038 67.1C34.3638 66.7133 34.2438 66.2133 34.2438 65.6V59.58H32.8638V57.52H34.2438V54.12H36.9238V57.52H39.1238V59.58H36.9238V64.7C36.9238 65.06 37.0172 65.32 37.2038 65.48C37.4038 65.64 37.6438 65.72 37.9238 65.72C38.2038 65.72 38.4772 65.6733 38.7438 65.58C39.0105 65.4867 39.2238 65.4067 39.3838 65.34L39.9238 67.46ZM46.0429 68.2C44.9096 68.2 43.9296 67.9533 43.1029 67.46C42.2896 66.9667 41.6562 66.3133 41.2029 65.5C40.7496 64.6733 40.5229 63.78 40.5229 62.82C40.5229 61.8333 40.7429 60.9267 41.1829 60.1C41.6362 59.26 42.2762 58.5933 43.1029 58.1C43.9296 57.5933 44.9162 57.34 46.0629 57.34C47.2096 57.34 48.1896 57.5933 49.0029 58.1C49.8162 58.5933 50.4362 59.2533 50.8629 60.08C51.3029 60.8933 51.5229 61.7733 51.5229 62.72C51.5229 63.0667 51.5029 63.3667 51.4629 63.62H43.3629C43.4296 64.4333 43.7296 65.0733 44.2629 65.54C44.8096 66.0067 45.4362 66.24 46.1429 66.24C46.6762 66.24 47.1762 66.1133 47.6429 65.86C48.1229 65.5933 48.4496 65.2467 48.6229 64.82L50.9229 65.46C50.5362 66.26 49.9162 66.92 49.0629 67.44C48.2096 67.9467 47.2029 68.2 46.0429 68.2ZM43.3029 61.92H48.7829C48.7029 61.1333 48.4029 60.5 47.8829 60.02C47.3762 59.5267 46.7562 59.28 46.0229 59.28C45.3029 59.28 44.6829 59.5267 44.1629 60.02C43.6562 60.5 43.3696 61.1333 43.3029 61.92ZM57.0155 68.2C56.1222 68.2 55.2689 68.0533 54.4555 67.76C53.6422 67.4667 52.9422 67.0333 52.3555 66.46L53.3155 64.72C53.9422 65.2267 54.5555 65.6 55.1555 65.84C55.7555 66.08 56.3422 66.2 56.9155 66.2C57.4355 66.2 57.8489 66.1067 58.1555 65.92C58.4755 65.7333 58.6355 65.4533 58.6355 65.08C58.6355 64.6933 58.4422 64.4333 58.0555 64.3C57.6689 64.1533 57.1289 63.9733 56.4355 63.76C55.6622 63.52 55.0155 63.2733 54.4955 63.02C53.9755 62.7667 53.5822 62.46 53.3155 62.1C53.0622 61.74 52.9355 61.2733 52.9355 60.7C52.9355 59.6733 53.3222 58.8533 54.0955 58.24C54.8689 57.6267 55.8955 57.32 57.1755 57.32C57.9222 57.32 58.6289 57.44 59.2955 57.68C59.9622 57.9067 60.5689 58.28 61.1155 58.8L60.0355 60.5C59.0089 59.7 58.0155 59.3 57.0555 59.3C56.6289 59.3 56.2489 59.38 55.9155 59.54C55.5955 59.7 55.4355 59.98 55.4355 60.38C55.4355 60.7533 55.5889 61.02 55.8955 61.18C56.2155 61.34 56.6955 61.5133 57.3355 61.7C58.1622 61.9533 58.8622 62.2 59.4355 62.44C60.0222 62.68 60.4622 62.9867 60.7555 63.36C61.0622 63.7333 61.2155 64.24 61.2155 64.88C61.2155 65.92 60.8355 66.7333 60.0755 67.32C59.3155 67.9067 58.2955 68.2 57.0155 68.2ZM72.723 68.2C71.5897 68.2 70.6097 67.9467 69.783 67.44C68.9564 66.9333 68.3164 66.2667 67.863 65.44C67.4097 64.6133 67.183 63.72 67.183 62.76C67.183 61.7867 67.403 60.8867 67.843 60.06C68.2964 59.2333 68.9364 58.5733 69.763 58.08C70.5897 57.5867 71.5697 57.34 72.703 57.34C73.8497 57.34 74.823 57.5867 75.623 58.08C76.4364 58.5733 77.043 59.22 77.443 60.02L74.823 60.82C74.3564 60.02 73.643 59.62 72.683 59.62C72.163 59.62 71.6964 59.7533 71.283 60.02C70.8697 60.2733 70.543 60.64 70.303 61.12C70.063 61.5867 69.943 62.1333 69.943 62.76C69.943 63.3733 70.063 63.92 70.303 64.4C70.5564 64.8667 70.8897 65.24 71.303 65.52C71.7164 65.7867 72.1764 65.92 72.683 65.92C73.163 65.92 73.603 65.8067 74.003 65.58C74.4164 65.34 74.703 65.04 74.863 64.68L77.483 65.48C77.123 66.2667 76.523 66.92 75.683 67.44C74.8564 67.9467 73.8697 68.2 72.723 68.2ZM83.8745 68.2C82.7278 68.2 81.7411 67.9533 80.9145 67.46C80.1011 66.9533 79.4745 66.2867 79.0345 65.46C78.5945 64.6333 78.3745 63.74 78.3745 62.78C78.3745 61.8067 78.5945 60.9067 79.0345 60.08C79.4878 59.2533 80.1211 58.5933 80.9345 58.1C81.7611 57.5933 82.7411 57.34 83.8745 57.34C85.0078 57.34 85.9811 57.5933 86.7945 58.1C87.6211 58.5933 88.2545 59.2533 88.6945 60.08C89.1345 60.9067 89.3545 61.8067 89.3545 62.78C89.3545 63.74 89.1345 64.6333 88.6945 65.46C88.2545 66.2867 87.6211 66.9533 86.7945 67.46C85.9811 67.9533 85.0078 68.2 83.8745 68.2ZM81.1345 62.78C81.1345 63.3933 81.2545 63.94 81.4945 64.42C81.7345 64.8867 82.0611 65.2533 82.4745 65.52C82.8878 65.7867 83.3545 65.92 83.8745 65.92C84.3811 65.92 84.8411 65.7867 85.2545 65.52C85.6678 65.24 85.9945 64.8667 86.2345 64.4C86.4878 63.92 86.6145 63.3733 86.6145 62.76C86.6145 62.16 86.4878 61.6267 86.2345 61.16C85.9945 60.68 85.6678 60.3067 85.2545 60.04C84.8411 59.76 84.3811 59.62 83.8745 59.62C83.3545 59.62 82.8878 59.76 82.4745 60.04C82.0611 60.3067 81.7345 60.68 81.4945 61.16C81.2545 61.6267 81.1345 62.1667 81.1345 62.78ZM93.6318 68L89.7718 57.52H92.5518L95.1918 65.56L97.8518 57.52H100.392L96.5518 68H93.6318ZM106.316 68.2C105.183 68.2 104.203 67.9533 103.376 67.46C102.563 66.9667 101.93 66.3133 101.476 65.5C101.023 64.6733 100.796 63.78 100.796 62.82C100.796 61.8333 101.016 60.9267 101.456 60.1C101.91 59.26 102.55 58.5933 103.376 58.1C104.203 57.5933 105.19 57.34 106.336 57.34C107.483 57.34 108.463 57.5933 109.276 58.1C110.09 58.5933 110.71 59.2533 111.136 60.08C111.576 60.8933 111.796 61.7733 111.796 62.72C111.796 63.0667 111.776 63.3667 111.736 63.62H103.636C103.703 64.4333 104.003 65.0733 104.536 65.54C105.083 66.0067 105.71 66.24 106.416 66.24C106.95 66.24 107.45 66.1133 107.916 65.86C108.396 65.5933 108.723 65.2467 108.896 64.82L111.196 65.46C110.81 66.26 110.19 66.92 109.336 67.44C108.483 67.9467 107.476 68.2 106.316 68.2ZM103.576 61.92H109.056C108.976 61.1333 108.676 60.5 108.156 60.02C107.65 59.5267 107.03 59.28 106.296 59.28C105.576 59.28 104.956 59.5267 104.436 60.02C103.93 60.5 103.643 61.1333 103.576 61.92ZM119.669 59.84C118.856 59.84 118.129 60 117.489 60.32C116.849 60.6267 116.389 61.0733 116.109 61.66V68H113.429V57.52H115.889V59.76C116.249 59.04 116.716 58.4733 117.289 58.06C117.876 57.6467 118.489 57.42 119.129 57.38C119.409 57.38 119.589 57.3867 119.669 57.4V59.84ZM125.887 68.2C124.753 68.2 123.773 67.9533 122.947 67.46C122.133 66.9667 121.5 66.3133 121.047 65.5C120.593 64.6733 120.367 63.78 120.367 62.82C120.367 61.8333 120.587 60.9267 121.027 60.1C121.48 59.26 122.12 58.5933 122.947 58.1C123.773 57.5933 124.76 57.34 125.907 57.34C127.053 57.34 128.033 57.5933 128.847 58.1C129.66 58.5933 130.28 59.2533 130.707 60.08C131.147 60.8933 131.367 61.7733 131.367 62.72C131.367 63.0667 131.347 63.3667 131.307 63.62H123.207C123.273 64.4333 123.573 65.0733 124.107 65.54C124.653 66.0067 125.28 66.24 125.987 66.24C126.52 66.24 127.02 66.1133 127.487 65.86C127.967 65.5933 128.293 65.2467 128.467 64.82L130.767 65.46C130.38 66.26 129.76 66.92 128.907 67.44C128.053 67.9467 127.047 68.2 125.887 68.2ZM123.147 61.92H128.627C128.547 61.1333 128.247 60.5 127.727 60.02C127.22 59.5267 126.6 59.28 125.867 59.28C125.147 59.28 124.527 59.5267 124.007 60.02C123.5 60.5 123.213 61.1333 123.147 61.92ZM132.359 62.76C132.359 61.76 132.559 60.8467 132.959 60.02C133.359 59.1933 133.913 58.54 134.619 58.06C135.326 57.58 136.133 57.34 137.039 57.34C137.813 57.34 138.506 57.5333 139.119 57.92C139.746 58.2933 140.233 58.7733 140.579 59.36V53.4H143.259V65C143.259 65.2933 143.306 65.5 143.399 65.62C143.493 65.7267 143.653 65.7933 143.879 65.82V68C143.399 68.0933 143.019 68.14 142.739 68.14C142.259 68.14 141.859 68.02 141.539 67.78C141.233 67.54 141.059 67.2267 141.019 66.84L140.979 66.18C140.593 66.8333 140.066 67.3333 139.399 67.68C138.746 68.0267 138.059 68.2 137.339 68.2C136.366 68.2 135.506 67.96 134.759 67.48C134.013 66.9867 133.426 66.3333 132.999 65.52C132.573 64.6933 132.359 63.7733 132.359 62.76ZM140.579 64.16V61.66C140.366 61.0733 139.999 60.5867 139.479 60.2C138.959 59.8133 138.426 59.62 137.879 59.62C137.333 59.62 136.853 59.7733 136.439 60.08C136.026 60.3733 135.706 60.7667 135.479 61.26C135.253 61.74 135.139 62.26 135.139 62.82C135.139 63.3933 135.266 63.92 135.519 64.4C135.773 64.8667 136.113 65.24 136.539 65.52C136.979 65.7867 137.479 65.92 138.039 65.92C138.546 65.92 139.046 65.7533 139.539 65.42C140.046 65.0867 140.393 64.6667 140.579 64.16Z" fill="#464558"/>
</svg>
