<svg width="673" height="286" viewBox="0 0 673 286" fill="none" xmlns="http://www.w3.org/2000/svg">
<ellipse cx="337" cy="58.5044" rx="43" ry="43.3739" fill="#F95C19"/>
<path d="M353 57.0419C354.333 57.8117 354.333 59.7362 353 60.506L329 74.3624C327.667 75.1322 326 74.1699 326 72.6303V44.9175C326 43.3779 327.667 42.4157 329 43.1855L353 57.0419Z" fill="white"/>
<path d="M196.149 164V142.437H210.899V146.5H200.649V151.812H209.961V155.875H200.649V164H196.149ZM211.788 163.156L218.194 142.437H225.069L231.475 163.156L230.913 164H227.163L225.85 159.625H217.413L216.1 164H212.35L211.788 163.156ZM218.632 155.562H224.632L221.882 146.5H221.382L218.632 155.562ZM233.663 162.375V159.937H243.351C243.976 159.937 244.288 159.625 244.288 159V156.719C244.288 156.135 244.028 155.792 243.507 155.687L237.413 154.469C234.913 153.969 233.663 152.292 233.663 149.437V147.687C233.663 144.187 235.413 142.437 238.913 142.437H246.07L248.163 144.062V146.5H239.101C238.476 146.5 238.163 146.812 238.163 147.437V149.469C238.163 150.052 238.424 150.396 238.945 150.5L245.038 151.719C247.538 152.219 248.788 153.896 248.788 156.75V158.75C248.788 162.25 247.038 164 243.538 164H235.757L233.663 162.375ZM251.16 146.5V142.437H268.785V146.5H262.222V164H257.722V146.5H251.16ZM272.107 164V142.437H286.857V146.5H276.607V150.875H285.919V154.937H276.607V159.937H286.857V164H272.107ZM290.029 162.375V159.937H299.717C300.342 159.937 300.654 159.625 300.654 159V156.719C300.654 156.135 300.394 155.792 299.873 155.687L293.779 154.469C291.279 153.969 290.029 152.292 290.029 149.437V147.687C290.029 144.187 291.779 142.437 295.279 142.437H302.436L304.529 144.062V146.5H295.467C294.842 146.5 294.529 146.812 294.529 147.437V149.469C294.529 150.052 294.79 150.396 295.311 150.5L301.404 151.719C303.904 152.219 305.154 153.896 305.154 156.75V158.75C305.154 162.25 303.404 164 299.904 164H292.123L290.029 162.375ZM307.526 146.5V142.437H325.151V146.5H318.588V164H314.088V146.5H307.526ZM335.98 164V142.437H344.168C350.043 142.437 352.98 145.375 352.98 151.25V155.187C352.98 161.062 350.043 164 344.168 164H335.98ZM340.48 159.937H344.418C347.126 159.937 348.48 158.583 348.48 155.875V150.562C348.48 147.854 347.126 146.5 344.418 146.5H340.48V159.937ZM357.495 164V142.437H372.245V146.5H361.995V150.875H371.308V154.937H361.995V159.937H372.245V164H357.495ZM376.355 164V142.437H380.855V159.937H390.167V164H376.355ZM393.475 164V142.437H397.975V164H393.475ZM401.088 143.281L401.651 142.437H405.588L410.526 159.937H411.026L415.963 142.437H419.901L420.463 143.281L414.338 164H407.213L401.088 143.281ZM423.596 164V142.437H438.346V146.5H428.096V150.875H437.409V154.937H428.096V159.937H438.346V164H423.596ZM442.456 164V142.437H452.956C456.456 142.437 458.206 144.187 458.206 147.687V151.25C458.206 153.854 457.237 155.49 455.3 156.156L458.831 163.062L458.3 164H454.425L450.612 156.5H446.956V164H442.456ZM446.956 152.437H452.769C453.394 152.437 453.706 152.125 453.706 151.5V147.437C453.706 146.812 453.394 146.5 452.769 146.5H446.956V152.437ZM460.72 143.281L461.251 142.437H465.095L469.782 151.594L474.47 142.437H478.313L478.845 143.281L472.032 156.375V164H467.532V156.375L460.72 143.281Z" fill="#F95C19"/>
<path d="M31.6351 194.25L37.4351 203.8L43.2851 194.25H45.1851L38.3101 205.4V212H36.5601V205.35L29.7101 194.25H31.6351ZM50.7243 212.25C49.4743 212.25 48.3577 211.942 47.3743 211.325C46.4076 210.708 45.6493 209.892 45.0993 208.875C44.5493 207.842 44.2743 206.725 44.2743 205.525C44.2743 204.308 44.5493 203.192 45.0993 202.175C45.666 201.142 46.4326 200.317 47.3993 199.7C48.3826 199.067 49.491 198.75 50.7243 198.75C51.9743 198.75 53.0826 199.067 54.0493 199.7C55.0327 200.317 55.7993 201.142 56.3493 202.175C56.916 203.192 57.1993 204.308 57.1993 205.525C57.1993 206.725 56.9243 207.842 56.3743 208.875C55.8243 209.892 55.0577 210.708 54.0743 211.325C53.1077 211.942 51.991 212.25 50.7243 212.25ZM45.9993 205.55C45.9993 206.517 46.2076 207.4 46.6243 208.2C47.0576 208.983 47.6326 209.608 48.3493 210.075C49.066 210.525 49.8576 210.75 50.7243 210.75C51.591 210.75 52.3827 210.517 53.0993 210.05C53.816 209.583 54.391 208.95 54.8243 208.15C55.2577 207.35 55.4743 206.467 55.4743 205.5C55.4743 204.533 55.2577 203.65 54.8243 202.85C54.391 202.05 53.816 201.417 53.0993 200.95C52.3827 200.483 51.591 200.25 50.7243 200.25C49.8743 200.25 49.091 200.492 48.3743 200.975C47.6577 201.442 47.0826 202.075 46.6493 202.875C46.216 203.675 45.9993 204.567 45.9993 205.55ZM59.9175 206.625V198.975H61.6175V206.325C61.6175 209.275 62.6258 210.75 64.6425 210.75C65.6425 210.75 66.5758 210.425 67.4425 209.775C68.3258 209.125 68.9591 208.258 69.3425 207.175V198.975H71.0425V209.95C71.0425 210.4 71.2425 210.633 71.6425 210.65V212C71.4425 212.033 71.2841 212.05 71.1675 212.05C71.0675 212.05 70.9591 212.05 70.8425 212.05C70.4925 212.017 70.1925 211.883 69.9425 211.65C69.7091 211.417 69.5925 211.133 69.5925 210.8L69.5425 209.05C68.9758 210.067 68.2008 210.858 67.2175 211.425C66.2508 211.975 65.2008 212.25 64.0675 212.25C61.3008 212.25 59.9175 210.375 59.9175 206.625ZM86.9083 212.25C85.6416 212.25 84.5166 211.942 83.5333 211.325C82.55 210.692 81.775 209.867 81.2083 208.85C80.6416 207.817 80.3583 206.683 80.3583 205.45C80.3583 204.217 80.6333 203.1 81.1833 202.1C81.7333 201.083 82.5 200.275 83.4833 199.675C84.4666 199.058 85.6 198.75 86.8833 198.75C88.1 198.75 89.1666 199.033 90.0833 199.6C91.0166 200.15 91.7166 200.9 92.1833 201.85L90.5333 202.375C90.1666 201.708 89.65 201.192 88.9833 200.825C88.3333 200.442 87.6083 200.25 86.8083 200.25C85.925 200.25 85.125 200.475 84.4083 200.925C83.7083 201.375 83.1416 202 82.7083 202.8C82.2916 203.583 82.0833 204.467 82.0833 205.45C82.0833 206.433 82.3 207.325 82.7333 208.125C83.1666 208.925 83.7416 209.567 84.4583 210.05C85.175 210.517 85.9666 210.75 86.8333 210.75C87.4 210.75 87.95 210.65 88.4833 210.45C89.0166 210.25 89.475 209.983 89.8583 209.65C90.2416 209.3 90.5 208.925 90.6333 208.525L92.3083 209.025C92.075 209.642 91.6916 210.2 91.1583 210.7C90.625 211.183 89.9916 211.567 89.2583 211.85C88.525 212.117 87.7416 212.25 86.9083 212.25ZM93.929 208.25C93.929 207.45 94.1623 206.758 94.629 206.175C95.0957 205.575 95.7373 205.108 96.554 204.775C97.3873 204.442 98.3457 204.275 99.429 204.275C100.062 204.275 100.721 204.333 101.404 204.45C102.087 204.55 102.696 204.692 103.229 204.875V203.775C103.229 202.675 102.904 201.8 102.254 201.15C101.604 200.5 100.704 200.175 99.554 200.175C98.8707 200.175 98.1873 200.308 97.504 200.575C96.8207 200.825 96.1123 201.2 95.379 201.7L94.729 200.5C95.579 199.917 96.4123 199.483 97.229 199.2C98.0457 198.9 98.879 198.75 99.729 198.75C101.329 198.75 102.596 199.208 103.529 200.125C104.462 201.042 104.929 202.308 104.929 203.925V209.95C104.929 210.4 105.137 210.633 105.554 210.65V212C105.187 212.05 104.929 212.067 104.779 212.05C104.362 212.033 104.046 211.9 103.829 211.65C103.612 211.4 103.496 211.133 103.479 210.85L103.454 209.9C102.871 210.65 102.112 211.233 101.179 211.65C100.246 212.05 99.2957 212.25 98.329 212.25C97.479 212.25 96.7207 212.075 96.054 211.725C95.3873 211.358 94.8623 210.875 94.479 210.275C94.1123 209.658 93.929 208.983 93.929 208.25ZM102.654 209.25C103.037 208.8 103.229 208.383 103.229 208V206.1C102.079 205.65 100.879 205.425 99.629 205.425C98.4123 205.425 97.429 205.667 96.679 206.15C95.929 206.633 95.554 207.292 95.554 208.125C95.554 208.842 95.829 209.492 96.379 210.075C96.9457 210.658 97.729 210.95 98.729 210.95C99.5457 210.95 100.304 210.792 101.004 210.475C101.721 210.158 102.271 209.75 102.654 209.25ZM119.552 212H117.852V204.725C117.852 203.192 117.619 202.075 117.152 201.375C116.702 200.658 116.002 200.3 115.052 200.3C114.385 200.3 113.727 200.467 113.077 200.8C112.427 201.117 111.852 201.558 111.352 202.125C110.869 202.675 110.519 203.308 110.302 204.025V212H108.602V198.975H110.152V201.925C110.669 200.975 111.427 200.208 112.427 199.625C113.427 199.042 114.51 198.75 115.677 198.75C116.644 198.75 117.41 198.983 117.977 199.45C118.544 199.9 118.944 200.55 119.177 201.4C119.427 202.233 119.552 203.225 119.552 204.375V212ZM134.774 212.175C133.874 212.175 133.049 211.992 132.299 211.625C131.566 211.258 130.924 210.767 130.374 210.15C129.841 209.517 129.424 208.8 129.124 208C128.824 207.2 128.674 206.375 128.674 205.525C128.674 204.308 128.933 203.192 129.449 202.175C129.966 201.142 130.674 200.317 131.574 199.7C132.491 199.067 133.541 198.75 134.724 198.75C135.841 198.75 136.808 199.033 137.624 199.6C138.458 200.167 139.158 200.867 139.724 201.7V198.975H141.249V212.05C141.249 213.267 140.958 214.283 140.374 215.1C139.791 215.917 139.016 216.533 138.049 216.95C137.083 217.367 136.024 217.575 134.874 217.575C133.374 217.575 132.166 217.308 131.249 216.775C130.349 216.242 129.608 215.525 129.024 214.625L130.074 213.8C130.591 214.617 131.274 215.225 132.124 215.625C132.991 216.025 133.908 216.225 134.874 216.225C135.724 216.225 136.499 216.067 137.199 215.75C137.916 215.45 138.483 214.992 138.899 214.375C139.333 213.758 139.549 212.983 139.549 212.05V209.475C139.049 210.292 138.366 210.95 137.499 211.45C136.633 211.933 135.724 212.175 134.774 212.175ZM135.249 210.75C135.933 210.75 136.583 210.592 137.199 210.275C137.816 209.958 138.333 209.558 138.749 209.075C139.183 208.575 139.449 208.058 139.549 207.525V203.5C139.299 202.867 138.941 202.308 138.474 201.825C138.008 201.325 137.474 200.942 136.874 200.675C136.274 200.392 135.666 200.25 135.049 200.25C134.083 200.25 133.249 200.517 132.549 201.05C131.866 201.567 131.333 202.233 130.949 203.05C130.583 203.85 130.399 204.683 130.399 205.55C130.399 206.483 130.616 207.35 131.049 208.15C131.483 208.933 132.066 209.567 132.799 210.05C133.533 210.517 134.349 210.75 135.249 210.75ZM150.628 212.25C149.378 212.25 148.262 211.942 147.278 211.325C146.295 210.708 145.52 209.883 144.953 208.85C144.387 207.817 144.103 206.683 144.103 205.45C144.103 204.233 144.378 203.117 144.928 202.1C145.495 201.083 146.27 200.275 147.253 199.675C148.237 199.058 149.353 198.75 150.603 198.75C151.887 198.75 153.012 199.058 153.978 199.675C154.945 200.292 155.695 201.108 156.228 202.125C156.778 203.125 157.053 204.225 157.053 205.425C157.053 205.692 157.045 205.917 157.028 206.1H145.878C145.962 207.033 146.228 207.867 146.678 208.6C147.128 209.317 147.703 209.892 148.403 210.325C149.103 210.742 149.87 210.95 150.703 210.95C151.553 210.95 152.353 210.733 153.103 210.3C153.853 209.867 154.387 209.3 154.703 208.6L156.178 209C155.912 209.633 155.495 210.2 154.928 210.7C154.378 211.183 153.737 211.567 153.003 211.85C152.27 212.117 151.478 212.25 150.628 212.25ZM145.828 204.875H155.453C155.387 203.942 155.128 203.117 154.678 202.4C154.228 201.667 153.653 201.1 152.953 200.7C152.253 200.283 151.478 200.075 150.628 200.075C149.778 200.075 149.003 200.283 148.303 200.7C147.603 201.1 147.028 201.667 146.578 202.4C146.145 203.117 145.895 203.942 145.828 204.875ZM165.804 211.375C165.604 211.458 165.238 211.608 164.704 211.825C164.171 212.042 163.554 212.15 162.854 212.15C162.121 212.15 161.479 211.942 160.929 211.525C160.379 211.108 160.104 210.483 160.104 209.65V200.325H158.304V198.975H160.104V194.575H161.804V198.975H164.804V200.325H161.804V209.175C161.838 209.658 162.004 210.017 162.304 210.25C162.621 210.467 162.979 210.575 163.379 210.575C163.846 210.575 164.263 210.5 164.629 210.35C165.013 210.183 165.254 210.067 165.354 210L165.804 211.375ZM174.367 216C174.6 216.017 174.825 216.025 175.042 216.025C175.258 216.042 175.417 216.033 175.517 216C175.717 215.983 175.9 215.867 176.067 215.65C176.25 215.45 176.467 215.067 176.717 214.5C176.983 213.95 177.342 213.117 177.792 212L172.117 198.975H173.917L178.692 210.25L183.092 198.975H184.792L178.042 215.775C177.858 216.258 177.55 216.675 177.117 217.025C176.683 217.375 176.108 217.558 175.392 217.575C175.242 217.592 175.083 217.592 174.917 217.575C174.75 217.575 174.567 217.558 174.367 217.525V216ZM192.253 212.25C191.003 212.25 189.886 211.942 188.903 211.325C187.936 210.708 187.178 209.892 186.628 208.875C186.078 207.842 185.803 206.725 185.803 205.525C185.803 204.308 186.078 203.192 186.628 202.175C187.194 201.142 187.961 200.317 188.928 199.7C189.911 199.067 191.019 198.75 192.253 198.75C193.503 198.75 194.611 199.067 195.578 199.7C196.561 200.317 197.328 201.142 197.878 202.175C198.444 203.192 198.728 204.308 198.728 205.525C198.728 206.725 198.453 207.842 197.903 208.875C197.353 209.892 196.586 210.708 195.603 211.325C194.636 211.942 193.519 212.25 192.253 212.25ZM187.528 205.55C187.528 206.517 187.736 207.4 188.153 208.2C188.586 208.983 189.161 209.608 189.878 210.075C190.594 210.525 191.386 210.75 192.253 210.75C193.119 210.75 193.911 210.517 194.628 210.05C195.344 209.583 195.919 208.95 196.353 208.15C196.786 207.35 197.003 206.467 197.003 205.5C197.003 204.533 196.786 203.65 196.353 202.85C195.919 202.05 195.344 201.417 194.628 200.95C193.911 200.483 193.119 200.25 192.253 200.25C191.403 200.25 190.619 200.492 189.903 200.975C189.186 201.442 188.611 202.075 188.178 202.875C187.744 203.675 187.528 204.567 187.528 205.55ZM201.446 206.625V198.975H203.146V206.325C203.146 209.275 204.154 210.75 206.171 210.75C207.171 210.75 208.104 210.425 208.971 209.775C209.854 209.125 210.487 208.258 210.871 207.175V198.975H212.571V209.95C212.571 210.4 212.771 210.633 213.171 210.65V212C212.971 212.033 212.812 212.05 212.696 212.05C212.596 212.05 212.487 212.05 212.371 212.05C212.021 212.017 211.721 211.883 211.471 211.65C211.237 211.417 211.121 211.133 211.121 210.8L211.071 209.05C210.504 210.067 209.729 210.858 208.746 211.425C207.779 211.975 206.729 212.25 205.596 212.25C202.829 212.25 201.446 210.375 201.446 206.625ZM222.915 200.475C221.781 200.508 220.781 200.825 219.915 201.425C219.065 202.025 218.465 202.85 218.115 203.9V212H216.415V198.975H218.015V202.1C218.465 201.183 219.056 200.442 219.79 199.875C220.54 199.308 221.331 198.992 222.165 198.925C222.331 198.908 222.473 198.9 222.59 198.9C222.706 198.9 222.815 198.908 222.915 198.925V200.475ZM234.157 212L228.882 198.975H230.657L235.107 210.3L239.582 198.975H241.257L235.982 212H234.157ZM242.244 208.25C242.244 207.45 242.478 206.758 242.944 206.175C243.411 205.575 244.053 205.108 244.869 204.775C245.703 204.442 246.661 204.275 247.744 204.275C248.378 204.275 249.036 204.333 249.719 204.45C250.403 204.55 251.011 204.692 251.544 204.875V203.775C251.544 202.675 251.219 201.8 250.569 201.15C249.919 200.5 249.019 200.175 247.869 200.175C247.186 200.175 246.503 200.308 245.819 200.575C245.136 200.825 244.428 201.2 243.694 201.7L243.044 200.5C243.894 199.917 244.728 199.483 245.544 199.2C246.361 198.9 247.194 198.75 248.044 198.75C249.644 198.75 250.911 199.208 251.844 200.125C252.778 201.042 253.244 202.308 253.244 203.925V209.95C253.244 210.4 253.453 210.633 253.869 210.65V212C253.503 212.05 253.244 212.067 253.094 212.05C252.678 212.033 252.361 211.9 252.144 211.65C251.928 211.4 251.811 211.133 251.794 210.85L251.769 209.9C251.186 210.65 250.428 211.233 249.494 211.65C248.561 212.05 247.611 212.25 246.644 212.25C245.794 212.25 245.036 212.075 244.369 211.725C243.703 211.358 243.178 210.875 242.794 210.275C242.428 209.658 242.244 208.983 242.244 208.25ZM250.969 209.25C251.353 208.8 251.544 208.383 251.544 208V206.1C250.394 205.65 249.194 205.425 247.944 205.425C246.728 205.425 245.744 205.667 244.994 206.15C244.244 206.633 243.869 207.292 243.869 208.125C243.869 208.842 244.144 209.492 244.694 210.075C245.261 210.658 246.044 210.95 247.044 210.95C247.861 210.95 248.619 210.792 249.319 210.475C250.036 210.158 250.586 209.75 250.969 209.25ZM256.992 193.75H258.692V209.05C258.692 209.7 258.801 210.125 259.017 210.325C259.251 210.525 259.542 210.625 259.892 210.625C260.192 210.625 260.492 210.592 260.792 210.525C261.109 210.458 261.367 210.392 261.567 210.325L261.867 211.7C261.551 211.833 261.159 211.942 260.692 212.025C260.242 212.108 259.851 212.15 259.517 212.15C258.751 212.15 258.134 211.925 257.667 211.475C257.217 211.025 256.992 210.408 256.992 209.625V193.75ZM263.604 206.625V198.975H265.304V206.325C265.304 209.275 266.312 210.75 268.329 210.75C269.329 210.75 270.262 210.425 271.129 209.775C272.012 209.125 272.646 208.258 273.029 207.175V198.975H274.729V209.95C274.729 210.4 274.929 210.633 275.329 210.65V212C275.129 212.033 274.971 212.05 274.854 212.05C274.754 212.05 274.646 212.05 274.529 212.05C274.179 212.017 273.879 211.883 273.629 211.65C273.396 211.417 273.279 211.133 273.279 210.8L273.229 209.05C272.662 210.067 271.887 210.858 270.904 211.425C269.937 211.975 268.887 212.25 267.754 212.25C264.987 212.25 263.604 210.375 263.604 206.625ZM277.523 208.25C277.523 207.45 277.756 206.758 278.223 206.175C278.689 205.575 279.331 205.108 280.148 204.775C280.981 204.442 281.939 204.275 283.023 204.275C283.656 204.275 284.314 204.333 284.998 204.45C285.681 204.55 286.289 204.692 286.823 204.875V203.775C286.823 202.675 286.498 201.8 285.848 201.15C285.198 200.5 284.298 200.175 283.148 200.175C282.464 200.175 281.781 200.308 281.098 200.575C280.414 200.825 279.706 201.2 278.973 201.7L278.323 200.5C279.173 199.917 280.006 199.483 280.823 199.2C281.639 198.9 282.473 198.75 283.323 198.75C284.923 198.75 286.189 199.208 287.123 200.125C288.056 201.042 288.523 202.308 288.523 203.925V209.95C288.523 210.4 288.731 210.633 289.148 210.65V212C288.781 212.05 288.523 212.067 288.373 212.05C287.956 212.033 287.639 211.9 287.423 211.65C287.206 211.4 287.089 211.133 287.073 210.85L287.048 209.9C286.464 210.65 285.706 211.233 284.773 211.65C283.839 212.05 282.889 212.25 281.923 212.25C281.073 212.25 280.314 212.075 279.648 211.725C278.981 211.358 278.456 210.875 278.073 210.275C277.706 209.658 277.523 208.983 277.523 208.25ZM286.248 209.25C286.631 208.8 286.823 208.383 286.823 208V206.1C285.673 205.65 284.473 205.425 283.223 205.425C282.006 205.425 281.023 205.667 280.273 206.15C279.523 206.633 279.148 207.292 279.148 208.125C279.148 208.842 279.423 209.492 279.973 210.075C280.539 210.658 281.323 210.95 282.323 210.95C283.139 210.95 283.898 210.792 284.598 210.475C285.314 210.158 285.864 209.75 286.248 209.25ZM298.571 212.25C297.554 212.25 296.612 211.992 295.746 211.475C294.879 210.942 294.204 210.275 293.721 209.475V212H292.196V193.75H293.896V201.7C294.479 200.817 295.179 200.108 295.996 199.575C296.812 199.025 297.762 198.75 298.846 198.75C299.762 198.75 300.579 198.942 301.296 199.325C302.029 199.708 302.654 200.225 303.171 200.875C303.687 201.508 304.079 202.233 304.346 203.05C304.612 203.85 304.746 204.675 304.746 205.525C304.746 206.742 304.471 207.858 303.921 208.875C303.387 209.892 302.654 210.708 301.721 211.325C300.787 211.942 299.737 212.25 298.571 212.25ZM298.171 210.75C299.121 210.75 299.954 210.5 300.671 210C301.404 209.5 301.979 208.858 302.396 208.075C302.812 207.275 303.021 206.425 303.021 205.525C303.021 204.608 302.821 203.75 302.421 202.95C302.037 202.15 301.496 201.5 300.796 201C300.096 200.5 299.287 200.25 298.371 200.25C297.354 200.25 296.454 200.575 295.671 201.225C294.904 201.875 294.312 202.633 293.896 203.5V207.55C293.979 208.15 294.254 208.692 294.721 209.175C295.187 209.658 295.737 210.042 296.371 210.325C297.004 210.608 297.604 210.75 298.171 210.75ZM307.7 193.75H309.4V209.05C309.4 209.7 309.509 210.125 309.725 210.325C309.959 210.525 310.25 210.625 310.6 210.625C310.9 210.625 311.2 210.592 311.5 210.525C311.817 210.458 312.075 210.392 312.275 210.325L312.575 211.7C312.259 211.833 311.867 211.942 311.4 212.025C310.95 212.108 310.559 212.15 310.225 212.15C309.459 212.15 308.842 211.925 308.375 211.475C307.925 211.025 307.7 210.408 307.7 209.625V193.75ZM320.062 212.25C318.812 212.25 317.695 211.942 316.712 211.325C315.729 210.708 314.954 209.883 314.387 208.85C313.82 207.817 313.537 206.683 313.537 205.45C313.537 204.233 313.812 203.117 314.362 202.1C314.929 201.083 315.704 200.275 316.687 199.675C317.67 199.058 318.787 198.75 320.037 198.75C321.32 198.75 322.445 199.058 323.412 199.675C324.379 200.292 325.129 201.108 325.662 202.125C326.212 203.125 326.487 204.225 326.487 205.425C326.487 205.692 326.479 205.917 326.462 206.1H315.312C315.395 207.033 315.662 207.867 316.112 208.6C316.562 209.317 317.137 209.892 317.837 210.325C318.537 210.742 319.304 210.95 320.137 210.95C320.987 210.95 321.787 210.733 322.537 210.3C323.287 209.867 323.82 209.3 324.137 208.6L325.612 209C325.345 209.633 324.929 210.2 324.362 210.7C323.812 211.183 323.17 211.567 322.437 211.85C321.704 212.117 320.912 212.25 320.062 212.25ZM315.262 204.875H324.887C324.82 203.942 324.562 203.117 324.112 202.4C323.662 201.667 323.087 201.1 322.387 200.7C321.687 200.283 320.912 200.075 320.062 200.075C319.212 200.075 318.437 200.283 317.737 200.7C317.037 201.1 316.462 201.667 316.012 202.4C315.579 203.117 315.329 203.942 315.262 204.875ZM335.482 196.25V193.75H337.182V196.25H335.482ZM335.482 212V198.975H337.182V212H335.482ZM347.176 211.375C346.976 211.458 346.61 211.608 346.076 211.825C345.543 212.042 344.926 212.15 344.226 212.15C343.493 212.15 342.851 211.942 342.301 211.525C341.751 211.108 341.476 210.483 341.476 209.65V200.325H339.676V198.975H341.476V194.575H343.176V198.975H346.176V200.325H343.176V209.175C343.21 209.658 343.376 210.017 343.676 210.25C343.993 210.467 344.351 210.575 344.751 210.575C345.218 210.575 345.635 210.5 346.001 210.35C346.385 210.183 346.626 210.067 346.726 210L347.176 211.375ZM354.706 212.25C353.456 212.25 352.339 211.942 351.356 211.325C350.372 210.708 349.597 209.883 349.031 208.85C348.464 207.817 348.181 206.683 348.181 205.45C348.181 204.233 348.456 203.117 349.006 202.1C349.572 201.083 350.347 200.275 351.331 199.675C352.314 199.058 353.431 198.75 354.681 198.75C355.964 198.75 357.089 199.058 358.056 199.675C359.022 200.292 359.772 201.108 360.306 202.125C360.856 203.125 361.131 204.225 361.131 205.425C361.131 205.692 361.122 205.917 361.106 206.1H349.956C350.039 207.033 350.306 207.867 350.756 208.6C351.206 209.317 351.781 209.892 352.481 210.325C353.181 210.742 353.947 210.95 354.781 210.95C355.631 210.95 356.431 210.733 357.181 210.3C357.931 209.867 358.464 209.3 358.781 208.6L360.256 209C359.989 209.633 359.572 210.2 359.006 210.7C358.456 211.183 357.814 211.567 357.081 211.85C356.347 212.117 355.556 212.25 354.706 212.25ZM349.906 204.875H359.531C359.464 203.942 359.206 203.117 358.756 202.4C358.306 201.667 357.731 201.1 357.031 200.7C356.331 200.283 355.556 200.075 354.706 200.075C353.856 200.075 353.081 200.283 352.381 200.7C351.681 201.1 351.106 201.667 350.656 202.4C350.222 203.117 349.972 203.942 349.906 204.875ZM383.128 212H381.428V204.725C381.428 203.225 381.187 202.117 380.703 201.4C380.22 200.667 379.503 200.3 378.553 200.3C377.553 200.3 376.67 200.65 375.903 201.35C375.137 202.05 374.595 202.95 374.278 204.05V212H372.578V204.725C372.578 203.192 372.337 202.075 371.853 201.375C371.387 200.658 370.678 200.3 369.728 200.3C368.745 200.3 367.862 200.642 367.078 201.325C366.312 202.008 365.77 202.908 365.453 204.025V212H363.753V198.975H365.303V201.925C365.837 200.925 366.537 200.15 367.403 199.6C368.27 199.033 369.228 198.75 370.278 198.75C371.362 198.75 372.237 199.067 372.903 199.7C373.57 200.317 373.978 201.117 374.128 202.1C375.328 199.867 377.003 198.75 379.153 198.75C380.62 198.75 381.645 199.267 382.228 200.3C382.828 201.317 383.128 202.675 383.128 204.375V212ZM393.099 196.25V193.75H394.799V196.25H393.099ZM393.099 212V198.975H394.799V212H393.099ZM409.493 212H407.793V204.725C407.793 203.192 407.56 202.075 407.093 201.375C406.643 200.658 405.943 200.3 404.993 200.3C404.327 200.3 403.668 200.467 403.018 200.8C402.368 201.117 401.793 201.558 401.293 202.125C400.81 202.675 400.46 203.308 400.243 204.025V212H398.543V198.975H400.093V201.925C400.61 200.975 401.368 200.208 402.368 199.625C403.368 199.042 404.452 198.75 405.618 198.75C406.585 198.75 407.352 198.983 407.918 199.45C408.485 199.9 408.885 200.55 409.118 201.4C409.368 202.233 409.493 203.225 409.493 204.375V212ZM425.741 211.375C425.541 211.458 425.174 211.608 424.641 211.825C424.107 212.042 423.491 212.15 422.791 212.15C422.057 212.15 421.416 211.942 420.866 211.525C420.316 211.108 420.041 210.483 420.041 209.65V200.325H418.241V198.975H420.041V194.575H421.741V198.975H424.741V200.325H421.741V209.175C421.774 209.658 421.941 210.017 422.241 210.25C422.557 210.467 422.916 210.575 423.316 210.575C423.782 210.575 424.199 210.5 424.566 210.35C424.949 210.183 425.191 210.067 425.291 210L425.741 211.375ZM438.815 212H437.115V204.725C437.115 201.775 436.115 200.3 434.115 200.3C433.465 200.3 432.831 200.467 432.215 200.8C431.598 201.117 431.048 201.558 430.565 202.125C430.098 202.675 429.765 203.308 429.565 204.025V212H427.865V193.75H429.565V201.925C430.081 200.958 430.798 200.192 431.715 199.625C432.648 199.042 433.64 198.75 434.69 198.75C435.69 198.75 436.49 198.992 437.09 199.475C437.69 199.942 438.123 200.6 438.39 201.45C438.673 202.283 438.815 203.258 438.815 204.375V212ZM448.065 212.25C446.815 212.25 445.698 211.942 444.715 211.325C443.732 210.708 442.957 209.883 442.39 208.85C441.823 207.817 441.54 206.683 441.54 205.45C441.54 204.233 441.815 203.117 442.365 202.1C442.932 201.083 443.707 200.275 444.69 199.675C445.673 199.058 446.79 198.75 448.04 198.75C449.323 198.75 450.448 199.058 451.415 199.675C452.382 200.292 453.132 201.108 453.665 202.125C454.215 203.125 454.49 204.225 454.49 205.425C454.49 205.692 454.482 205.917 454.465 206.1H443.315C443.398 207.033 443.665 207.867 444.115 208.6C444.565 209.317 445.14 209.892 445.84 210.325C446.54 210.742 447.307 210.95 448.14 210.95C448.99 210.95 449.79 210.733 450.54 210.3C451.29 209.867 451.823 209.3 452.14 208.6L453.615 209C453.348 209.633 452.932 210.2 452.365 210.7C451.815 211.183 451.173 211.567 450.44 211.85C449.707 212.117 448.915 212.25 448.065 212.25ZM443.265 204.875H452.89C452.823 203.942 452.565 203.117 452.115 202.4C451.665 201.667 451.09 201.1 450.39 200.7C449.69 200.283 448.915 200.075 448.065 200.075C447.215 200.075 446.44 200.283 445.74 200.7C445.04 201.1 444.465 201.667 444.015 202.4C443.582 203.117 443.332 203.942 443.265 204.875ZM464.11 212V200.325H462.31V198.975H464.11V198.625C464.11 197.025 464.452 195.775 465.135 194.875C465.835 193.958 466.768 193.5 467.935 193.5C468.435 193.5 468.927 193.575 469.41 193.725C469.91 193.875 470.335 194.075 470.685 194.325L470.16 195.55C469.66 195.167 469.027 194.975 468.26 194.975C467.477 194.975 466.868 195.283 466.435 195.9C466.018 196.517 465.81 197.408 465.81 198.575V198.975H469.41V200.325H465.81V212H464.11ZM470.638 208.25C470.638 207.45 470.871 206.758 471.338 206.175C471.805 205.575 472.446 205.108 473.263 204.775C474.096 204.442 475.055 204.275 476.138 204.275C476.771 204.275 477.43 204.333 478.113 204.45C478.796 204.55 479.405 204.692 479.938 204.875V203.775C479.938 202.675 479.613 201.8 478.963 201.15C478.313 200.5 477.413 200.175 476.263 200.175C475.58 200.175 474.896 200.308 474.213 200.575C473.53 200.825 472.821 201.2 472.088 201.7L471.438 200.5C472.288 199.917 473.121 199.483 473.938 199.2C474.755 198.9 475.588 198.75 476.438 198.75C478.038 198.75 479.305 199.208 480.238 200.125C481.171 201.042 481.638 202.308 481.638 203.925V209.95C481.638 210.4 481.846 210.633 482.263 210.65V212C481.896 212.05 481.638 212.067 481.488 212.05C481.071 212.033 480.755 211.9 480.538 211.65C480.321 211.4 480.205 211.133 480.188 210.85L480.163 209.9C479.58 210.65 478.821 211.233 477.888 211.65C476.955 212.05 476.005 212.25 475.038 212.25C474.188 212.25 473.43 212.075 472.763 211.725C472.096 211.358 471.571 210.875 471.188 210.275C470.821 209.658 470.638 208.983 470.638 208.25ZM479.363 209.25C479.746 208.8 479.938 208.383 479.938 208V206.1C478.788 205.65 477.588 205.425 476.338 205.425C475.121 205.425 474.138 205.667 473.388 206.15C472.638 206.633 472.263 207.292 472.263 208.125C472.263 208.842 472.538 209.492 473.088 210.075C473.655 210.658 474.438 210.95 475.438 210.95C476.255 210.95 477.013 210.792 477.713 210.475C478.43 210.158 478.98 209.75 479.363 209.25ZM489.586 212.25C488.519 212.25 487.528 212.075 486.611 211.725C485.711 211.358 484.919 210.825 484.236 210.125L484.936 208.925C485.669 209.608 486.403 210.108 487.136 210.425C487.886 210.725 488.678 210.875 489.511 210.875C490.511 210.875 491.328 210.675 491.961 210.275C492.611 209.858 492.936 209.267 492.936 208.5C492.936 207.983 492.778 207.592 492.461 207.325C492.161 207.042 491.719 206.817 491.136 206.65C490.569 206.483 489.886 206.292 489.086 206.075C488.186 205.825 487.428 205.567 486.811 205.3C486.211 205.017 485.753 204.667 485.436 204.25C485.136 203.817 484.986 203.258 484.986 202.575C484.986 201.742 485.194 201.042 485.611 200.475C486.044 199.908 486.628 199.483 487.361 199.2C488.111 198.9 488.944 198.75 489.861 198.75C490.861 198.75 491.744 198.908 492.511 199.225C493.278 199.542 493.903 199.983 494.386 200.55L493.561 201.7C493.111 201.167 492.553 200.775 491.886 200.525C491.236 200.258 490.528 200.125 489.761 200.125C489.228 200.125 488.719 200.2 488.236 200.35C487.753 200.483 487.353 200.717 487.036 201.05C486.736 201.367 486.586 201.808 486.586 202.375C486.586 203.075 486.844 203.558 487.361 203.825C487.878 204.092 488.661 204.375 489.711 204.675C490.694 204.942 491.553 205.208 492.286 205.475C493.019 205.742 493.586 206.1 493.986 206.55C494.386 206.983 494.586 207.592 494.586 208.375C494.586 209.592 494.128 210.542 493.211 211.225C492.294 211.908 491.086 212.25 489.586 212.25ZM503.646 211.375C503.446 211.458 503.079 211.608 502.546 211.825C502.013 212.042 501.396 212.15 500.696 212.15C499.963 212.15 499.321 211.942 498.771 211.525C498.221 211.108 497.946 210.483 497.946 209.65V200.325H496.146V198.975H497.946V194.575H499.646V198.975H502.646V200.325H499.646V209.175C499.679 209.658 499.846 210.017 500.146 210.25C500.463 210.467 500.821 210.575 501.221 210.575C501.688 210.575 502.104 210.5 502.471 210.35C502.854 210.183 503.096 210.067 503.196 210L503.646 211.375ZM511.175 212.25C509.925 212.25 508.809 211.942 507.825 211.325C506.842 210.708 506.067 209.883 505.5 208.85C504.934 207.817 504.65 206.683 504.65 205.45C504.65 204.233 504.925 203.117 505.475 202.1C506.042 201.083 506.817 200.275 507.8 199.675C508.784 199.058 509.9 198.75 511.15 198.75C512.434 198.75 513.559 199.058 514.525 199.675C515.492 200.292 516.242 201.108 516.775 202.125C517.325 203.125 517.6 204.225 517.6 205.425C517.6 205.692 517.592 205.917 517.575 206.1H506.425C506.509 207.033 506.775 207.867 507.225 208.6C507.675 209.317 508.25 209.892 508.95 210.325C509.65 210.742 510.417 210.95 511.25 210.95C512.1 210.95 512.9 210.733 513.65 210.3C514.4 209.867 514.934 209.3 515.25 208.6L516.725 209C516.459 209.633 516.042 210.2 515.475 210.7C514.925 211.183 514.284 211.567 513.55 211.85C512.817 212.117 512.025 212.25 511.175 212.25ZM506.375 204.875H516C515.934 203.942 515.675 203.117 515.225 202.4C514.775 201.667 514.2 201.1 513.5 200.7C512.8 200.283 512.025 200.075 511.175 200.075C510.325 200.075 509.55 200.283 508.85 200.7C508.15 201.1 507.575 201.667 507.125 202.4C506.692 203.117 506.442 203.942 506.375 204.875ZM524.498 212.25C523.431 212.25 522.44 212.075 521.523 211.725C520.623 211.358 519.831 210.825 519.148 210.125L519.848 208.925C520.581 209.608 521.315 210.108 522.048 210.425C522.798 210.725 523.59 210.875 524.423 210.875C525.423 210.875 526.24 210.675 526.873 210.275C527.523 209.858 527.848 209.267 527.848 208.5C527.848 207.983 527.69 207.592 527.373 207.325C527.073 207.042 526.631 206.817 526.048 206.65C525.481 206.483 524.798 206.292 523.998 206.075C523.098 205.825 522.34 205.567 521.723 205.3C521.123 205.017 520.665 204.667 520.348 204.25C520.048 203.817 519.898 203.258 519.898 202.575C519.898 201.742 520.106 201.042 520.523 200.475C520.956 199.908 521.54 199.483 522.273 199.2C523.023 198.9 523.856 198.75 524.773 198.75C525.773 198.75 526.656 198.908 527.423 199.225C528.19 199.542 528.815 199.983 529.298 200.55L528.473 201.7C528.023 201.167 527.465 200.775 526.798 200.525C526.148 200.258 525.44 200.125 524.673 200.125C524.14 200.125 523.631 200.2 523.148 200.35C522.665 200.483 522.265 200.717 521.948 201.05C521.648 201.367 521.498 201.808 521.498 202.375C521.498 203.075 521.756 203.558 522.273 203.825C522.79 204.092 523.573 204.375 524.623 204.675C525.606 204.942 526.465 205.208 527.198 205.475C527.931 205.742 528.498 206.1 528.898 206.55C529.298 206.983 529.498 207.592 529.498 208.375C529.498 209.592 529.04 210.542 528.123 211.225C527.206 211.908 525.998 212.25 524.498 212.25ZM538.558 211.375C538.358 211.458 537.991 211.608 537.458 211.825C536.925 212.042 536.308 212.15 535.608 212.15C534.875 212.15 534.233 211.942 533.683 211.525C533.133 211.108 532.858 210.483 532.858 209.65V200.325H531.058V198.975H532.858V194.575H534.558V198.975H537.558V200.325H534.558V209.175C534.591 209.658 534.758 210.017 535.058 210.25C535.375 210.467 535.733 210.575 536.133 210.575C536.6 210.575 537.016 210.5 537.383 210.35C537.766 210.183 538.008 210.067 538.108 210L538.558 211.375ZM553.704 212.25C552.621 212.25 551.646 211.967 550.779 211.4C549.929 210.833 549.254 210.133 548.754 209.3V217.325H547.054V198.975H548.579V201.5C549.096 200.683 549.779 200.025 550.629 199.525C551.496 199.008 552.429 198.75 553.429 198.75C554.329 198.75 555.154 198.942 555.904 199.325C556.654 199.692 557.304 200.192 557.854 200.825C558.421 201.458 558.854 202.183 559.154 203C559.454 203.8 559.604 204.633 559.604 205.5C559.604 206.717 559.354 207.842 558.854 208.875C558.371 209.892 557.679 210.708 556.779 211.325C555.896 211.942 554.871 212.25 553.704 212.25ZM553.229 210.75C554.179 210.75 554.996 210.5 555.679 210C556.379 209.483 556.921 208.825 557.304 208.025C557.688 207.225 557.879 206.383 557.879 205.5C557.879 204.567 557.663 203.7 557.229 202.9C556.796 202.1 556.213 201.458 555.479 200.975C554.763 200.492 553.946 200.25 553.029 200.25C552.463 200.25 551.863 200.4 551.229 200.7C550.613 200.983 550.063 201.375 549.579 201.875C549.113 202.358 548.838 202.892 548.754 203.475V207.475C549.138 208.392 549.738 209.167 550.554 209.8C551.371 210.433 552.263 210.75 553.229 210.75ZM568.109 212.25C566.859 212.25 565.742 211.942 564.759 211.325C563.776 210.708 563.001 209.883 562.434 208.85C561.867 207.817 561.584 206.683 561.584 205.45C561.584 204.233 561.859 203.117 562.409 202.1C562.976 201.083 563.751 200.275 564.734 199.675C565.717 199.058 566.834 198.75 568.084 198.75C569.367 198.75 570.492 199.058 571.459 199.675C572.426 200.292 573.176 201.108 573.709 202.125C574.259 203.125 574.534 204.225 574.534 205.425C574.534 205.692 574.526 205.917 574.509 206.1H563.359C563.442 207.033 563.709 207.867 564.159 208.6C564.609 209.317 565.184 209.892 565.884 210.325C566.584 210.742 567.351 210.95 568.184 210.95C569.034 210.95 569.834 210.733 570.584 210.3C571.334 209.867 571.867 209.3 572.184 208.6L573.659 209C573.392 209.633 572.976 210.2 572.409 210.7C571.859 211.183 571.217 211.567 570.484 211.85C569.751 212.117 568.959 212.25 568.109 212.25ZM563.309 204.875H572.934C572.867 203.942 572.609 203.117 572.159 202.4C571.709 201.667 571.134 201.1 570.434 200.7C569.734 200.283 568.959 200.075 568.109 200.075C567.259 200.075 566.484 200.283 565.784 200.7C565.084 201.1 564.509 201.667 564.059 202.4C563.626 203.117 563.376 203.942 563.309 204.875ZM583.657 200.475C582.523 200.508 581.523 200.825 580.657 201.425C579.807 202.025 579.207 202.85 578.857 203.9V212H577.157V198.975H578.757V202.1C579.207 201.183 579.798 200.442 580.532 199.875C581.282 199.308 582.073 198.992 582.907 198.925C583.073 198.908 583.215 198.9 583.332 198.9C583.448 198.9 583.557 198.908 583.657 198.925V200.475ZM585.921 196.25V193.75H587.621V196.25H585.921ZM585.921 212V198.975H587.621V212H585.921ZM596.916 212.25C595.666 212.25 594.549 211.942 593.566 211.325C592.599 210.708 591.841 209.892 591.291 208.875C590.741 207.842 590.466 206.725 590.466 205.525C590.466 204.308 590.741 203.192 591.291 202.175C591.857 201.142 592.624 200.317 593.591 199.7C594.574 199.067 595.682 198.75 596.916 198.75C598.166 198.75 599.274 199.067 600.241 199.7C601.224 200.317 601.991 201.142 602.541 202.175C603.107 203.192 603.391 204.308 603.391 205.525C603.391 206.725 603.116 207.842 602.566 208.875C602.016 209.892 601.249 210.708 600.266 211.325C599.299 211.942 598.182 212.25 596.916 212.25ZM592.191 205.55C592.191 206.517 592.399 207.4 592.816 208.2C593.249 208.983 593.824 209.608 594.541 210.075C595.257 210.525 596.049 210.75 596.916 210.75C597.782 210.75 598.574 210.517 599.291 210.05C600.007 209.583 600.582 208.95 601.016 208.15C601.449 207.35 601.666 206.467 601.666 205.5C601.666 204.533 601.449 203.65 601.016 202.85C600.582 202.05 600.007 201.417 599.291 200.95C598.574 200.483 597.782 200.25 596.916 200.25C596.066 200.25 595.282 200.492 594.566 200.975C593.849 201.442 593.274 202.075 592.841 202.875C592.407 203.675 592.191 204.567 592.191 205.55ZM605.359 205.525C605.359 204.292 605.609 203.167 606.109 202.15C606.626 201.117 607.334 200.292 608.234 199.675C609.134 199.058 610.159 198.75 611.309 198.75C612.392 198.75 613.359 199.042 614.209 199.625C615.076 200.192 615.751 200.883 616.234 201.7V193.75H617.934V209.95C617.934 210.4 618.134 210.633 618.534 210.65V212C618.201 212.05 617.942 212.067 617.759 212.05C617.392 212.033 617.076 211.9 616.809 211.65C616.559 211.383 616.434 211.083 616.434 210.75V209.475C615.917 210.325 615.217 211 614.334 211.5C613.451 212 612.534 212.25 611.584 212.25C610.684 212.25 609.851 212.067 609.084 211.7C608.317 211.333 607.651 210.833 607.084 210.2C606.534 209.567 606.109 208.85 605.809 208.05C605.509 207.233 605.359 206.392 605.359 205.525ZM616.234 207.525V203.5C616.017 202.9 615.667 202.358 615.184 201.875C614.701 201.375 614.151 200.983 613.534 200.7C612.934 200.4 612.334 200.25 611.734 200.25C610.801 200.25 609.984 200.508 609.284 201.025C608.601 201.525 608.067 202.183 607.684 203C607.301 203.8 607.109 204.642 607.109 205.525C607.109 206.458 607.317 207.325 607.734 208.125C608.167 208.925 608.751 209.567 609.484 210.05C610.217 210.517 611.042 210.75 611.959 210.75C612.526 210.75 613.117 210.608 613.734 210.325C614.367 210.025 614.917 209.633 615.384 209.15C615.867 208.667 616.151 208.125 616.234 207.525ZM633.708 212.25C632.458 212.25 631.341 211.942 630.358 211.325C629.391 210.708 628.633 209.892 628.083 208.875C627.533 207.842 627.258 206.725 627.258 205.525C627.258 204.308 627.533 203.192 628.083 202.175C628.649 201.142 629.416 200.317 630.383 199.7C631.366 199.067 632.474 198.75 633.708 198.75C634.958 198.75 636.066 199.067 637.033 199.7C638.016 200.317 638.783 201.142 639.333 202.175C639.899 203.192 640.183 204.308 640.183 205.525C640.183 206.725 639.908 207.842 639.358 208.875C638.808 209.892 638.041 210.708 637.058 211.325C636.091 211.942 634.974 212.25 633.708 212.25ZM628.983 205.55C628.983 206.517 629.191 207.4 629.608 208.2C630.041 208.983 630.616 209.608 631.333 210.075C632.049 210.525 632.841 210.75 633.708 210.75C634.574 210.75 635.366 210.517 636.083 210.05C636.799 209.583 637.374 208.95 637.808 208.15C638.241 207.35 638.458 206.467 638.458 205.5C638.458 204.533 638.241 203.65 637.808 202.85C637.374 202.05 636.799 201.417 636.083 200.95C635.366 200.483 634.574 200.25 633.708 200.25C632.858 200.25 632.074 200.492 631.358 200.975C630.641 201.442 630.066 202.075 629.633 202.875C629.199 203.675 628.983 204.567 628.983 205.55ZM643.431 212V200.325H641.631V198.975H643.431V198.625C643.431 197.025 643.773 195.775 644.456 194.875C645.156 193.958 646.089 193.5 647.256 193.5C647.756 193.5 648.248 193.575 648.731 193.725C649.231 193.875 649.656 194.075 650.006 194.325L649.481 195.55C648.981 195.167 648.348 194.975 647.581 194.975C646.798 194.975 646.189 195.283 645.756 195.9C645.339 196.517 645.131 197.408 645.131 198.575V198.975H648.731V200.325H645.131V212H643.431ZM104.208 241.375C104.008 241.458 103.641 241.608 103.108 241.825C102.574 242.042 101.958 242.15 101.258 242.15C100.524 242.15 99.8825 241.942 99.3325 241.525C98.7825 241.108 98.5075 240.483 98.5075 239.65V230.325H96.7075V228.975H98.5075V224.575H100.208V228.975H103.208V230.325H100.208V239.175C100.241 239.658 100.408 240.017 100.708 240.25C101.024 240.467 101.383 240.575 101.783 240.575C102.249 240.575 102.666 240.5 103.033 240.35C103.416 240.183 103.658 240.067 103.758 240L104.208 241.375ZM106.332 226.25V223.75H108.032V226.25H106.332ZM106.332 242V228.975H108.032V242H106.332ZM131.151 242H129.451V234.725C129.451 233.225 129.209 232.117 128.726 231.4C128.243 230.667 127.526 230.3 126.576 230.3C125.576 230.3 124.693 230.65 123.926 231.35C123.159 232.05 122.618 232.95 122.301 234.05V242H120.601V234.725C120.601 233.192 120.359 232.075 119.876 231.375C119.409 230.658 118.701 230.3 117.751 230.3C116.768 230.3 115.884 230.642 115.101 231.325C114.334 232.008 113.793 232.908 113.476 234.025V242H111.776V228.975H113.326V231.925C113.859 230.925 114.559 230.15 115.426 229.6C116.293 229.033 117.251 228.75 118.301 228.75C119.384 228.75 120.259 229.067 120.926 229.7C121.593 230.317 122.001 231.117 122.151 232.1C123.351 229.867 125.026 228.75 127.176 228.75C128.643 228.75 129.668 229.267 130.251 230.3C130.851 231.317 131.151 232.675 131.151 234.375V242ZM140.375 242.25C139.125 242.25 138.008 241.942 137.025 241.325C136.041 240.708 135.266 239.883 134.7 238.85C134.133 237.817 133.85 236.683 133.85 235.45C133.85 234.233 134.125 233.117 134.675 232.1C135.241 231.083 136.016 230.275 137 229.675C137.983 229.058 139.1 228.75 140.35 228.75C141.633 228.75 142.758 229.058 143.725 229.675C144.691 230.292 145.441 231.108 145.975 232.125C146.525 233.125 146.8 234.225 146.8 235.425C146.8 235.692 146.791 235.917 146.775 236.1H135.625C135.708 237.033 135.975 237.867 136.425 238.6C136.875 239.317 137.45 239.892 138.15 240.325C138.85 240.742 139.616 240.95 140.45 240.95C141.3 240.95 142.1 240.733 142.85 240.3C143.6 239.867 144.133 239.3 144.45 238.6L145.925 239C145.658 239.633 145.241 240.2 144.675 240.7C144.125 241.183 143.483 241.567 142.75 241.85C142.016 242.117 141.225 242.25 140.375 242.25ZM135.575 234.875H145.2C145.133 233.942 144.875 233.117 144.425 232.4C143.975 231.667 143.4 231.1 142.7 230.7C142 230.283 141.225 230.075 140.375 230.075C139.525 230.075 138.75 230.283 138.05 230.7C137.35 231.1 136.775 231.667 136.325 232.4C135.891 233.117 135.641 233.942 135.575 234.875ZM171.486 228.975H173.161L167.561 242H166.086L163.361 235.525L160.661 242H159.186L153.586 228.975H155.236L159.986 240.25L162.386 234.375L160.186 229H161.711L163.361 233.225L165.036 229H166.536L164.361 234.375L166.761 240.25L171.486 228.975ZM175.423 226.25V223.75H177.123V226.25H175.423ZM175.423 242V228.975H177.123V242H175.423ZM187.118 241.375C186.918 241.458 186.551 241.608 186.018 241.825C185.484 242.042 184.868 242.15 184.168 242.15C183.434 242.15 182.793 241.942 182.243 241.525C181.693 241.108 181.418 240.483 181.418 239.65V230.325H179.618V228.975H181.418V224.575H183.118V228.975H186.118V230.325H183.118V239.175C183.151 239.658 183.318 240.017 183.618 240.25C183.934 240.467 184.293 240.575 184.693 240.575C185.159 240.575 185.576 240.5 185.943 240.35C186.326 240.183 186.568 240.067 186.668 240L187.118 241.375ZM200.192 242H198.492V234.725C198.492 231.775 197.492 230.3 195.492 230.3C194.842 230.3 194.208 230.467 193.592 230.8C192.975 231.117 192.425 231.558 191.942 232.125C191.475 232.675 191.142 233.308 190.942 234.025V242H189.242V223.75H190.942V231.925C191.458 230.958 192.175 230.192 193.092 229.625C194.025 229.042 195.017 228.75 196.067 228.75C197.067 228.75 197.867 228.992 198.467 229.475C199.067 229.942 199.5 230.6 199.767 231.45C200.05 232.283 200.192 233.258 200.192 234.375V242ZM214.464 242.25C213.397 242.25 212.406 242.075 211.489 241.725C210.589 241.358 209.797 240.825 209.114 240.125L209.814 238.925C210.547 239.608 211.281 240.108 212.014 240.425C212.764 240.725 213.556 240.875 214.389 240.875C215.389 240.875 216.206 240.675 216.839 240.275C217.489 239.858 217.814 239.267 217.814 238.5C217.814 237.983 217.656 237.592 217.339 237.325C217.039 237.042 216.597 236.817 216.014 236.65C215.447 236.483 214.764 236.292 213.964 236.075C213.064 235.825 212.306 235.567 211.689 235.3C211.089 235.017 210.631 234.667 210.314 234.25C210.014 233.817 209.864 233.258 209.864 232.575C209.864 231.742 210.072 231.042 210.489 230.475C210.922 229.908 211.506 229.483 212.239 229.2C212.989 228.9 213.822 228.75 214.739 228.75C215.739 228.75 216.622 228.908 217.389 229.225C218.156 229.542 218.781 229.983 219.264 230.55L218.439 231.7C217.989 231.167 217.431 230.775 216.764 230.525C216.114 230.258 215.406 230.125 214.639 230.125C214.106 230.125 213.597 230.2 213.114 230.35C212.631 230.483 212.231 230.717 211.914 231.05C211.614 231.367 211.464 231.808 211.464 232.375C211.464 233.075 211.722 233.558 212.239 233.825C212.756 234.092 213.539 234.375 214.589 234.675C215.572 234.942 216.431 235.208 217.164 235.475C217.897 235.742 218.464 236.1 218.864 236.55C219.264 236.983 219.464 237.592 219.464 238.375C219.464 239.592 219.006 240.542 218.089 241.225C217.172 241.908 215.964 242.25 214.464 242.25ZM221.224 238.25C221.224 237.45 221.457 236.758 221.924 236.175C222.391 235.575 223.032 235.108 223.849 234.775C224.682 234.442 225.641 234.275 226.724 234.275C227.357 234.275 228.016 234.333 228.699 234.45C229.382 234.55 229.991 234.692 230.524 234.875V233.775C230.524 232.675 230.199 231.8 229.549 231.15C228.899 230.5 227.999 230.175 226.849 230.175C226.166 230.175 225.482 230.308 224.799 230.575C224.116 230.825 223.407 231.2 222.674 231.7L222.024 230.5C222.874 229.917 223.707 229.483 224.524 229.2C225.341 228.9 226.174 228.75 227.024 228.75C228.624 228.75 229.891 229.208 230.824 230.125C231.757 231.042 232.224 232.308 232.224 233.925V239.95C232.224 240.4 232.432 240.633 232.849 240.65V242C232.482 242.05 232.224 242.067 232.074 242.05C231.657 242.033 231.341 241.9 231.124 241.65C230.907 241.4 230.791 241.133 230.774 240.85L230.749 239.9C230.166 240.65 229.407 241.233 228.474 241.65C227.541 242.05 226.591 242.25 225.624 242.25C224.774 242.25 224.016 242.075 223.349 241.725C222.682 241.358 222.157 240.875 221.774 240.275C221.407 239.658 221.224 238.983 221.224 238.25ZM229.949 239.25C230.332 238.8 230.524 238.383 230.524 238V236.1C229.374 235.65 228.174 235.425 226.924 235.425C225.707 235.425 224.724 235.667 223.974 236.15C223.224 236.633 222.849 237.292 222.849 238.125C222.849 238.842 223.124 239.492 223.674 240.075C224.241 240.658 225.024 240.95 226.024 240.95C226.841 240.95 227.599 240.792 228.299 240.475C229.016 240.158 229.566 239.75 229.949 239.25ZM236.424 242V230.325H234.624V228.975H236.424V228.625C236.424 227.025 236.766 225.775 237.449 224.875C238.149 223.958 239.083 223.5 240.249 223.5C240.749 223.5 241.241 223.575 241.724 223.725C242.224 223.875 242.649 224.075 242.999 224.325L242.474 225.55C241.974 225.167 241.341 224.975 240.574 224.975C239.791 224.975 239.183 225.283 238.749 225.9C238.333 226.517 238.124 227.408 238.124 228.575V228.975H241.724V230.325H238.124V242H236.424ZM249.286 242.25C248.036 242.25 246.919 241.942 245.936 241.325C244.952 240.708 244.177 239.883 243.611 238.85C243.044 237.817 242.761 236.683 242.761 235.45C242.761 234.233 243.036 233.117 243.586 232.1C244.152 231.083 244.927 230.275 245.911 229.675C246.894 229.058 248.011 228.75 249.261 228.75C250.544 228.75 251.669 229.058 252.636 229.675C253.602 230.292 254.352 231.108 254.886 232.125C255.436 233.125 255.711 234.225 255.711 235.425C255.711 235.692 255.702 235.917 255.686 236.1H244.536C244.619 237.033 244.886 237.867 245.336 238.6C245.786 239.317 246.361 239.892 247.061 240.325C247.761 240.742 248.527 240.95 249.361 240.95C250.211 240.95 251.011 240.733 251.761 240.3C252.511 239.867 253.044 239.3 253.361 238.6L254.836 239C254.569 239.633 254.152 240.2 253.586 240.7C253.036 241.183 252.394 241.567 251.661 241.85C250.927 242.117 250.136 242.25 249.286 242.25ZM244.486 234.875H254.111C254.044 233.942 253.786 233.117 253.336 232.4C252.886 231.667 252.311 231.1 251.611 230.7C250.911 230.283 250.136 230.075 249.286 230.075C248.436 230.075 247.661 230.283 246.961 230.7C246.261 231.1 245.686 231.667 245.236 232.4C244.802 233.117 244.552 233.942 244.486 234.875ZM264.461 241.375C264.261 241.458 263.895 241.608 263.361 241.825C262.828 242.042 262.211 242.15 261.511 242.15C260.778 242.15 260.136 241.942 259.586 241.525C259.036 241.108 258.761 240.483 258.761 239.65V230.325H256.961V228.975H258.761V224.575H260.461V228.975H263.461V230.325H260.461V239.175C260.495 239.658 260.661 240.017 260.961 240.25C261.278 240.467 261.636 240.575 262.036 240.575C262.503 240.575 262.92 240.5 263.286 240.35C263.67 240.183 263.911 240.067 264.011 240L264.461 241.375ZM267.335 246C267.569 246.017 267.794 246.025 268.01 246.025C268.227 246.042 268.385 246.033 268.485 246C268.685 245.983 268.869 245.867 269.035 245.65C269.219 245.45 269.435 245.067 269.685 244.5C269.952 243.95 270.31 243.117 270.76 242L265.085 228.975H266.885L271.66 240.25L276.06 228.975H277.76L271.01 245.775C270.827 246.258 270.519 246.675 270.085 247.025C269.652 247.375 269.077 247.558 268.36 247.575C268.21 247.592 268.052 247.592 267.885 247.575C267.719 247.575 267.535 247.558 267.335 247.525V246ZM277.981 242V239.55H279.456V242H277.981ZM303.039 237.425C303.039 238.308 302.814 239.1 302.364 239.8C301.914 240.483 301.306 241.025 300.539 241.425C299.789 241.808 298.964 242 298.064 242H289.689V224.25H298.239C299.073 224.25 299.789 224.475 300.389 224.925C300.989 225.358 301.456 225.925 301.789 226.625C302.123 227.308 302.289 228.025 302.289 228.775C302.289 229.658 302.064 230.475 301.614 231.225C301.164 231.975 300.539 232.533 299.739 232.9C300.739 233.2 301.539 233.758 302.139 234.575C302.739 235.392 303.039 236.342 303.039 237.425ZM291.439 225.775V232.325H297.539C298.123 232.325 298.639 232.175 299.089 231.875C299.556 231.558 299.914 231.158 300.164 230.675C300.431 230.175 300.564 229.633 300.564 229.05C300.564 228.45 300.439 227.9 300.189 227.4C299.939 226.9 299.598 226.508 299.164 226.225C298.731 225.925 298.239 225.775 297.689 225.775H291.439ZM301.289 237.125C301.289 236.542 301.156 235.992 300.889 235.475C300.623 234.958 300.256 234.542 299.789 234.225C299.339 233.908 298.823 233.75 298.239 233.75H291.439V240.475H298.064C298.664 240.475 299.206 240.317 299.689 240C300.173 239.683 300.556 239.275 300.839 238.775C301.139 238.258 301.289 237.708 301.289 237.125ZM311.615 242.25C310.365 242.25 309.248 241.942 308.265 241.325C307.281 240.708 306.506 239.883 305.94 238.85C305.373 237.817 305.09 236.683 305.09 235.45C305.09 234.233 305.365 233.117 305.915 232.1C306.481 231.083 307.256 230.275 308.24 229.675C309.223 229.058 310.34 228.75 311.59 228.75C312.873 228.75 313.998 229.058 314.965 229.675C315.931 230.292 316.681 231.108 317.215 232.125C317.765 233.125 318.04 234.225 318.04 235.425C318.04 235.692 318.031 235.917 318.015 236.1H306.865C306.948 237.033 307.215 237.867 307.665 238.6C308.115 239.317 308.69 239.892 309.39 240.325C310.09 240.742 310.856 240.95 311.69 240.95C312.54 240.95 313.34 240.733 314.09 240.3C314.84 239.867 315.373 239.3 315.69 238.6L317.165 239C316.898 239.633 316.481 240.2 315.915 240.7C315.365 241.183 314.723 241.567 313.99 241.85C313.256 242.117 312.465 242.25 311.615 242.25ZM306.815 234.875H316.44C316.373 233.942 316.115 233.117 315.665 232.4C315.215 231.667 314.64 231.1 313.94 230.7C313.24 230.283 312.465 230.075 311.615 230.075C310.765 230.075 309.99 230.283 309.29 230.7C308.59 231.1 308.015 231.667 307.565 232.4C307.131 233.117 306.881 233.942 306.815 234.875ZM326.313 242.25C325.046 242.25 323.921 241.942 322.938 241.325C321.954 240.692 321.179 239.867 320.613 238.85C320.046 237.817 319.763 236.683 319.763 235.45C319.763 234.217 320.038 233.1 320.588 232.1C321.138 231.083 321.904 230.275 322.888 229.675C323.871 229.058 325.004 228.75 326.288 228.75C327.504 228.75 328.571 229.033 329.488 229.6C330.421 230.15 331.121 230.9 331.588 231.85L329.938 232.375C329.571 231.708 329.054 231.192 328.388 230.825C327.738 230.442 327.013 230.25 326.213 230.25C325.329 230.25 324.529 230.475 323.813 230.925C323.113 231.375 322.546 232 322.113 232.8C321.696 233.583 321.488 234.467 321.488 235.45C321.488 236.433 321.704 237.325 322.138 238.125C322.571 238.925 323.146 239.567 323.863 240.05C324.579 240.517 325.371 240.75 326.238 240.75C326.804 240.75 327.354 240.65 327.888 240.45C328.421 240.25 328.879 239.983 329.263 239.65C329.646 239.3 329.904 238.925 330.038 238.525L331.713 239.025C331.479 239.642 331.096 240.2 330.563 240.7C330.029 241.183 329.396 241.567 328.663 241.85C327.929 242.117 327.146 242.25 326.313 242.25ZM333.333 238.25C333.333 237.45 333.567 236.758 334.033 236.175C334.5 235.575 335.142 235.108 335.958 234.775C336.792 234.442 337.75 234.275 338.833 234.275C339.467 234.275 340.125 234.333 340.808 234.45C341.492 234.55 342.1 234.692 342.633 234.875V233.775C342.633 232.675 342.308 231.8 341.658 231.15C341.008 230.5 340.108 230.175 338.958 230.175C338.275 230.175 337.592 230.308 336.908 230.575C336.225 230.825 335.517 231.2 334.783 231.7L334.133 230.5C334.983 229.917 335.817 229.483 336.633 229.2C337.45 228.9 338.283 228.75 339.133 228.75C340.733 228.75 342 229.208 342.933 230.125C343.867 231.042 344.333 232.308 344.333 233.925V239.95C344.333 240.4 344.542 240.633 344.958 240.65V242C344.592 242.05 344.333 242.067 344.183 242.05C343.767 242.033 343.45 241.9 343.233 241.65C343.017 241.4 342.9 241.133 342.883 240.85L342.858 239.9C342.275 240.65 341.517 241.233 340.583 241.65C339.65 242.05 338.7 242.25 337.733 242.25C336.883 242.25 336.125 242.075 335.458 241.725C334.792 241.358 334.267 240.875 333.883 240.275C333.517 239.658 333.333 238.983 333.333 238.25ZM342.058 239.25C342.442 238.8 342.633 238.383 342.633 238V236.1C341.483 235.65 340.283 235.425 339.033 235.425C337.817 235.425 336.833 235.667 336.083 236.15C335.333 236.633 334.958 237.292 334.958 238.125C334.958 238.842 335.233 239.492 335.783 240.075C336.35 240.658 337.133 240.95 338.133 240.95C338.95 240.95 339.708 240.792 340.408 240.475C341.125 240.158 341.675 239.75 342.058 239.25ZM347.881 236.625V228.975H349.581V236.325C349.581 239.275 350.59 240.75 352.606 240.75C353.606 240.75 354.54 240.425 355.406 239.775C356.29 239.125 356.923 238.258 357.306 237.175V228.975H359.006V239.95C359.006 240.4 359.206 240.633 359.606 240.65V242C359.406 242.033 359.248 242.05 359.131 242.05C359.031 242.05 358.923 242.05 358.806 242.05C358.456 242.017 358.156 241.883 357.906 241.65C357.673 241.417 357.556 241.133 357.556 240.8L357.506 239.05C356.94 240.067 356.165 240.858 355.181 241.425C354.215 241.975 353.165 242.25 352.031 242.25C349.265 242.25 347.881 240.375 347.881 236.625ZM367.125 242.25C366.058 242.25 365.067 242.075 364.15 241.725C363.25 241.358 362.458 240.825 361.775 240.125L362.475 238.925C363.208 239.608 363.942 240.108 364.675 240.425C365.425 240.725 366.217 240.875 367.05 240.875C368.05 240.875 368.867 240.675 369.5 240.275C370.15 239.858 370.475 239.267 370.475 238.5C370.475 237.983 370.317 237.592 370 237.325C369.7 237.042 369.258 236.817 368.675 236.65C368.108 236.483 367.425 236.292 366.625 236.075C365.725 235.825 364.967 235.567 364.35 235.3C363.75 235.017 363.292 234.667 362.975 234.25C362.675 233.817 362.525 233.258 362.525 232.575C362.525 231.742 362.733 231.042 363.15 230.475C363.583 229.908 364.167 229.483 364.9 229.2C365.65 228.9 366.483 228.75 367.4 228.75C368.4 228.75 369.283 228.908 370.05 229.225C370.817 229.542 371.442 229.983 371.925 230.55L371.1 231.7C370.65 231.167 370.092 230.775 369.425 230.525C368.775 230.258 368.067 230.125 367.3 230.125C366.767 230.125 366.258 230.2 365.775 230.35C365.292 230.483 364.892 230.717 364.575 231.05C364.275 231.367 364.125 231.808 364.125 232.375C364.125 233.075 364.383 233.558 364.9 233.825C365.417 234.092 366.2 234.375 367.25 234.675C368.233 234.942 369.092 235.208 369.825 235.475C370.558 235.742 371.125 236.1 371.525 236.55C371.925 236.983 372.125 237.592 372.125 238.375C372.125 239.592 371.667 240.542 370.75 241.225C369.833 241.908 368.625 242.25 367.125 242.25ZM380.56 242.25C379.31 242.25 378.193 241.942 377.21 241.325C376.227 240.708 375.452 239.883 374.885 238.85C374.318 237.817 374.035 236.683 374.035 235.45C374.035 234.233 374.31 233.117 374.86 232.1C375.427 231.083 376.202 230.275 377.185 229.675C378.168 229.058 379.285 228.75 380.535 228.75C381.818 228.75 382.943 229.058 383.91 229.675C384.877 230.292 385.627 231.108 386.16 232.125C386.71 233.125 386.985 234.225 386.985 235.425C386.985 235.692 386.977 235.917 386.96 236.1H375.81C375.893 237.033 376.16 237.867 376.61 238.6C377.06 239.317 377.635 239.892 378.335 240.325C379.035 240.742 379.802 240.95 380.635 240.95C381.485 240.95 382.285 240.733 383.035 240.3C383.785 239.867 384.318 239.3 384.635 238.6L386.11 239C385.843 239.633 385.427 240.2 384.86 240.7C384.31 241.183 383.668 241.567 382.935 241.85C382.202 242.117 381.41 242.25 380.56 242.25ZM375.76 234.875H385.385C385.318 233.942 385.06 233.117 384.61 232.4C384.16 231.667 383.585 231.1 382.885 230.7C382.185 230.283 381.41 230.075 380.56 230.075C379.71 230.075 378.935 230.283 378.235 230.7C377.535 231.1 376.96 231.667 376.51 232.4C376.077 233.117 375.827 233.942 375.76 234.875ZM396.046 246C396.28 246.017 396.505 246.025 396.721 246.025C396.938 246.042 397.096 246.033 397.196 246C397.396 245.983 397.58 245.867 397.746 245.65C397.93 245.45 398.146 245.067 398.396 244.5C398.663 243.95 399.021 243.117 399.471 242L393.796 228.975H395.596L400.371 240.25L404.771 228.975H406.471L399.721 245.775C399.538 246.258 399.23 246.675 398.796 247.025C398.363 247.375 397.788 247.558 397.071 247.575C396.921 247.592 396.763 247.592 396.596 247.575C396.43 247.575 396.246 247.558 396.046 247.525V246ZM413.932 242.25C412.682 242.25 411.566 241.942 410.582 241.325C409.616 240.708 408.857 239.892 408.307 238.875C407.757 237.842 407.482 236.725 407.482 235.525C407.482 234.308 407.757 233.192 408.307 232.175C408.874 231.142 409.641 230.317 410.607 229.7C411.591 229.067 412.699 228.75 413.932 228.75C415.182 228.75 416.291 229.067 417.257 229.7C418.241 230.317 419.007 231.142 419.557 232.175C420.124 233.192 420.407 234.308 420.407 235.525C420.407 236.725 420.132 237.842 419.582 238.875C419.032 239.892 418.266 240.708 417.282 241.325C416.316 241.942 415.199 242.25 413.932 242.25ZM409.207 235.55C409.207 236.517 409.416 237.4 409.832 238.2C410.266 238.983 410.841 239.608 411.557 240.075C412.274 240.525 413.066 240.75 413.932 240.75C414.799 240.75 415.591 240.517 416.307 240.05C417.024 239.583 417.599 238.95 418.032 238.15C418.466 237.35 418.682 236.467 418.682 235.5C418.682 234.533 418.466 233.65 418.032 232.85C417.599 232.05 417.024 231.417 416.307 230.95C415.591 230.483 414.799 230.25 413.932 230.25C413.082 230.25 412.299 230.492 411.582 230.975C410.866 231.442 410.291 232.075 409.857 232.875C409.424 233.675 409.207 234.567 409.207 235.55ZM423.125 236.625V228.975H424.825V236.325C424.825 239.275 425.834 240.75 427.85 240.75C428.85 240.75 429.784 240.425 430.65 239.775C431.534 239.125 432.167 238.258 432.55 237.175V228.975H434.25V239.95C434.25 240.4 434.45 240.633 434.85 240.65V242C434.65 242.033 434.492 242.05 434.375 242.05C434.275 242.05 434.167 242.05 434.05 242.05C433.7 242.017 433.4 241.883 433.15 241.65C432.917 241.417 432.8 241.133 432.8 240.8L432.75 239.05C432.184 240.067 431.409 240.858 430.425 241.425C429.459 241.975 428.409 242.25 427.275 242.25C424.509 242.25 423.125 240.375 423.125 236.625ZM444.594 230.475C443.461 230.508 442.461 230.825 441.594 231.425C440.744 232.025 440.144 232.85 439.794 233.9V242H438.094V228.975H439.694V232.1C440.144 231.183 440.736 230.442 441.469 229.875C442.219 229.308 443.011 228.992 443.844 228.925C444.011 228.908 444.153 228.9 444.269 228.9C444.386 228.9 444.494 228.908 444.594 228.925V230.475ZM458.27 242.25C457.02 242.25 455.903 241.942 454.92 241.325C453.937 240.708 453.162 239.883 452.595 238.85C452.028 237.817 451.745 236.683 451.745 235.45C451.745 234.233 452.02 233.117 452.57 232.1C453.137 231.083 453.912 230.275 454.895 229.675C455.878 229.058 456.995 228.75 458.245 228.75C459.528 228.75 460.653 229.058 461.62 229.675C462.587 230.292 463.337 231.108 463.87 232.125C464.42 233.125 464.695 234.225 464.695 235.425C464.695 235.692 464.687 235.917 464.67 236.1H453.52C453.603 237.033 453.87 237.867 454.32 238.6C454.77 239.317 455.345 239.892 456.045 240.325C456.745 240.742 457.512 240.95 458.345 240.95C459.195 240.95 459.995 240.733 460.745 240.3C461.495 239.867 462.028 239.3 462.345 238.6L463.82 239C463.553 239.633 463.137 240.2 462.57 240.7C462.02 241.183 461.378 241.567 460.645 241.85C459.912 242.117 459.12 242.25 458.27 242.25ZM453.47 234.875H463.095C463.028 233.942 462.77 233.117 462.32 232.4C461.87 231.667 461.295 231.1 460.595 230.7C459.895 230.283 459.12 230.075 458.27 230.075C457.42 230.075 456.645 230.283 455.945 230.7C455.245 231.1 454.67 231.667 454.22 232.4C453.787 233.117 453.537 233.942 453.47 234.875ZM486.693 242H484.993V234.725C484.993 233.225 484.751 232.117 484.268 231.4C483.785 230.667 483.068 230.3 482.118 230.3C481.118 230.3 480.235 230.65 479.468 231.35C478.701 232.05 478.16 232.95 477.843 234.05V242H476.143V234.725C476.143 233.192 475.901 232.075 475.418 231.375C474.951 230.658 474.243 230.3 473.293 230.3C472.31 230.3 471.426 230.642 470.643 231.325C469.876 232.008 469.335 232.908 469.018 234.025V242H467.318V228.975H468.868V231.925C469.401 230.925 470.101 230.15 470.968 229.6C471.835 229.033 472.793 228.75 473.843 228.75C474.926 228.75 475.801 229.067 476.468 229.7C477.135 230.317 477.543 231.117 477.693 232.1C478.893 229.867 480.568 228.75 482.718 228.75C484.185 228.75 485.21 229.267 485.793 230.3C486.393 231.317 486.693 232.675 486.693 234.375V242ZM495.917 242.25C494.667 242.25 493.55 241.942 492.567 241.325C491.583 240.708 490.808 239.883 490.242 238.85C489.675 237.817 489.392 236.683 489.392 235.45C489.392 234.233 489.667 233.117 490.217 232.1C490.783 231.083 491.558 230.275 492.542 229.675C493.525 229.058 494.642 228.75 495.892 228.75C497.175 228.75 498.3 229.058 499.267 229.675C500.233 230.292 500.983 231.108 501.517 232.125C502.067 233.125 502.342 234.225 502.342 235.425C502.342 235.692 502.333 235.917 502.317 236.1H491.167C491.25 237.033 491.517 237.867 491.967 238.6C492.417 239.317 492.992 239.892 493.692 240.325C494.392 240.742 495.158 240.95 495.992 240.95C496.842 240.95 497.642 240.733 498.392 240.3C499.142 239.867 499.675 239.3 499.992 238.6L501.467 239C501.2 239.633 500.783 240.2 500.217 240.7C499.667 241.183 499.025 241.567 498.292 241.85C497.558 242.117 496.767 242.25 495.917 242.25ZM491.117 234.875H500.742C500.675 233.942 500.417 233.117 499.967 232.4C499.517 231.667 498.942 231.1 498.242 230.7C497.542 230.283 496.767 230.075 495.917 230.075C495.067 230.075 494.292 230.283 493.592 230.7C492.892 231.1 492.317 231.667 491.867 232.4C491.433 233.117 491.183 233.942 491.117 234.875ZM511.464 230.475C510.331 230.508 509.331 230.825 508.464 231.425C507.614 232.025 507.014 232.85 506.664 233.9V242H504.964V228.975H506.564V232.1C507.014 231.183 507.606 230.442 508.339 229.875C509.089 229.308 509.881 228.992 510.714 228.925C510.881 228.908 511.023 228.9 511.139 228.9C511.256 228.9 511.364 228.908 511.464 228.925V230.475ZM518.612 242.175C517.712 242.175 516.887 241.992 516.137 241.625C515.404 241.258 514.762 240.767 514.212 240.15C513.679 239.517 513.262 238.8 512.962 238C512.662 237.2 512.512 236.375 512.512 235.525C512.512 234.308 512.771 233.192 513.287 232.175C513.804 231.142 514.512 230.317 515.412 229.7C516.329 229.067 517.379 228.75 518.562 228.75C519.679 228.75 520.646 229.033 521.462 229.6C522.296 230.167 522.996 230.867 523.562 231.7V228.975H525.087V242.05C525.087 243.267 524.796 244.283 524.212 245.1C523.629 245.917 522.854 246.533 521.887 246.95C520.921 247.367 519.862 247.575 518.712 247.575C517.212 247.575 516.004 247.308 515.087 246.775C514.187 246.242 513.446 245.525 512.862 244.625L513.912 243.8C514.429 244.617 515.112 245.225 515.962 245.625C516.829 246.025 517.746 246.225 518.712 246.225C519.562 246.225 520.337 246.067 521.037 245.75C521.754 245.45 522.321 244.992 522.737 244.375C523.171 243.758 523.387 242.983 523.387 242.05V239.475C522.887 240.292 522.204 240.95 521.337 241.45C520.471 241.933 519.562 242.175 518.612 242.175ZM519.087 240.75C519.771 240.75 520.421 240.592 521.037 240.275C521.654 239.958 522.171 239.558 522.587 239.075C523.021 238.575 523.287 238.058 523.387 237.525V233.5C523.137 232.867 522.779 232.308 522.312 231.825C521.846 231.325 521.312 230.942 520.712 230.675C520.112 230.392 519.504 230.25 518.887 230.25C517.921 230.25 517.087 230.517 516.387 231.05C515.704 231.567 515.171 232.233 514.787 233.05C514.421 233.85 514.237 234.683 514.237 235.55C514.237 236.483 514.454 237.35 514.887 238.15C515.321 238.933 515.904 239.567 516.637 240.05C517.371 240.517 518.187 240.75 519.087 240.75ZM534.466 242.25C533.216 242.25 532.1 241.942 531.116 241.325C530.133 240.708 529.358 239.883 528.791 238.85C528.225 237.817 527.941 236.683 527.941 235.45C527.941 234.233 528.216 233.117 528.766 232.1C529.333 231.083 530.108 230.275 531.091 229.675C532.075 229.058 533.191 228.75 534.441 228.75C535.725 228.75 536.85 229.058 537.816 229.675C538.783 230.292 539.533 231.108 540.066 232.125C540.616 233.125 540.891 234.225 540.891 235.425C540.891 235.692 540.883 235.917 540.866 236.1H529.716C529.8 237.033 530.066 237.867 530.516 238.6C530.966 239.317 531.541 239.892 532.241 240.325C532.941 240.742 533.708 240.95 534.541 240.95C535.391 240.95 536.191 240.733 536.941 240.3C537.691 239.867 538.225 239.3 538.541 238.6L540.016 239C539.75 239.633 539.333 240.2 538.766 240.7C538.216 241.183 537.575 241.567 536.841 241.85C536.108 242.117 535.316 242.25 534.466 242.25ZM529.666 234.875H539.291C539.225 233.942 538.966 233.117 538.516 232.4C538.066 231.667 537.491 231.1 536.791 230.7C536.091 230.283 535.316 230.075 534.466 230.075C533.616 230.075 532.841 230.283 532.141 230.7C531.441 231.1 530.866 231.667 530.416 232.4C529.983 233.117 529.733 233.942 529.666 234.875ZM554.464 242H552.764V234.725C552.764 233.192 552.531 232.075 552.064 231.375C551.614 230.658 550.914 230.3 549.964 230.3C549.297 230.3 548.639 230.467 547.989 230.8C547.339 231.117 546.764 231.558 546.264 232.125C545.781 232.675 545.431 233.308 545.214 234.025V242H543.514V228.975H545.064V231.925C545.581 230.975 546.339 230.208 547.339 229.625C548.339 229.042 549.422 228.75 550.589 228.75C551.556 228.75 552.322 228.983 552.889 229.45C553.456 229.9 553.856 230.55 554.089 231.4C554.339 232.233 554.464 233.225 554.464 234.375V242ZM563.739 242.25C562.473 242.25 561.348 241.942 560.364 241.325C559.381 240.692 558.606 239.867 558.039 238.85C557.473 237.817 557.189 236.683 557.189 235.45C557.189 234.217 557.464 233.1 558.014 232.1C558.564 231.083 559.331 230.275 560.314 229.675C561.298 229.058 562.431 228.75 563.714 228.75C564.931 228.75 565.998 229.033 566.914 229.6C567.848 230.15 568.548 230.9 569.014 231.85L567.364 232.375C566.998 231.708 566.481 231.192 565.814 230.825C565.164 230.442 564.439 230.25 563.639 230.25C562.756 230.25 561.956 230.475 561.239 230.925C560.539 231.375 559.973 232 559.539 232.8C559.123 233.583 558.914 234.467 558.914 235.45C558.914 236.433 559.131 237.325 559.564 238.125C559.998 238.925 560.573 239.567 561.289 240.05C562.006 240.517 562.798 240.75 563.664 240.75C564.231 240.75 564.781 240.65 565.314 240.45C565.848 240.25 566.306 239.983 566.689 239.65C567.073 239.3 567.331 238.925 567.464 238.525L569.139 239.025C568.906 239.642 568.523 240.2 567.989 240.7C567.456 241.183 566.823 241.567 566.089 241.85C565.356 242.117 564.573 242.25 563.739 242.25ZM572.365 246C572.598 246.017 572.823 246.025 573.04 246.025C573.256 246.042 573.415 246.033 573.515 246C573.715 245.983 573.898 245.867 574.065 245.65C574.248 245.45 574.465 245.067 574.715 244.5C574.981 243.95 575.34 243.117 575.79 242L570.115 228.975H571.915L576.69 240.25L581.09 228.975H582.79L576.04 245.775C575.856 246.258 575.548 246.675 575.115 247.025C574.681 247.375 574.106 247.558 573.39 247.575C573.24 247.592 573.081 247.592 572.915 247.575C572.748 247.575 572.565 247.558 572.365 247.525V246ZM241.646 256.25V253.75H243.346V256.25H241.646ZM241.646 272V258.975H243.346V272H241.646ZM251.366 272.25C250.299 272.25 249.307 272.075 248.391 271.725C247.491 271.358 246.699 270.825 246.016 270.125L246.716 268.925C247.449 269.608 248.182 270.108 248.916 270.425C249.666 270.725 250.457 270.875 251.291 270.875C252.291 270.875 253.107 270.675 253.741 270.275C254.391 269.858 254.716 269.267 254.716 268.5C254.716 267.983 254.557 267.592 254.241 267.325C253.941 267.042 253.499 266.817 252.916 266.65C252.349 266.483 251.666 266.292 250.866 266.075C249.966 265.825 249.207 265.567 248.591 265.3C247.991 265.017 247.532 264.667 247.216 264.25C246.916 263.817 246.766 263.258 246.766 262.575C246.766 261.742 246.974 261.042 247.391 260.475C247.824 259.908 248.407 259.483 249.141 259.2C249.891 258.9 250.724 258.75 251.641 258.75C252.641 258.75 253.524 258.908 254.291 259.225C255.057 259.542 255.682 259.983 256.166 260.55L255.341 261.7C254.891 261.167 254.332 260.775 253.666 260.525C253.016 260.258 252.307 260.125 251.541 260.125C251.007 260.125 250.499 260.2 250.016 260.35C249.532 260.483 249.132 260.717 248.816 261.05C248.516 261.367 248.366 261.808 248.366 262.375C248.366 263.075 248.624 263.558 249.141 263.825C249.657 264.092 250.441 264.375 251.491 264.675C252.474 264.942 253.332 265.208 254.066 265.475C254.799 265.742 255.366 266.1 255.766 266.55C256.166 266.983 256.366 267.592 256.366 268.375C256.366 269.592 255.907 270.542 254.991 271.225C254.074 271.908 252.866 272.25 251.366 272.25ZM271.098 272.25C269.848 272.25 268.731 271.942 267.748 271.325C266.781 270.708 266.023 269.892 265.473 268.875C264.923 267.842 264.648 266.725 264.648 265.525C264.648 264.308 264.923 263.192 265.473 262.175C266.04 261.142 266.806 260.317 267.773 259.7C268.756 259.067 269.865 258.75 271.098 258.75C272.348 258.75 273.456 259.067 274.423 259.7C275.406 260.317 276.173 261.142 276.723 262.175C277.29 263.192 277.573 264.308 277.573 265.525C277.573 266.725 277.298 267.842 276.748 268.875C276.198 269.892 275.431 270.708 274.448 271.325C273.481 271.942 272.365 272.25 271.098 272.25ZM266.373 265.55C266.373 266.517 266.581 267.4 266.998 268.2C267.431 268.983 268.006 269.608 268.723 270.075C269.44 270.525 270.231 270.75 271.098 270.75C271.965 270.75 272.756 270.517 273.473 270.05C274.19 269.583 274.765 268.95 275.198 268.15C275.631 267.35 275.848 266.467 275.848 265.5C275.848 264.533 275.631 263.65 275.198 262.85C274.765 262.05 274.19 261.417 273.473 260.95C272.756 260.483 271.965 260.25 271.098 260.25C270.248 260.25 269.465 260.492 268.748 260.975C268.031 261.442 267.456 262.075 267.023 262.875C266.59 263.675 266.373 264.567 266.373 265.55ZM280.291 266.625V258.975H281.991V266.325C281.991 269.275 282.999 270.75 285.016 270.75C286.016 270.75 286.949 270.425 287.816 269.775C288.699 269.125 289.333 268.258 289.716 267.175V258.975H291.416V269.95C291.416 270.4 291.616 270.633 292.016 270.65V272C291.816 272.033 291.658 272.05 291.541 272.05C291.441 272.05 291.333 272.05 291.216 272.05C290.866 272.017 290.566 271.883 290.316 271.65C290.083 271.417 289.966 271.133 289.966 270.8L289.916 269.05C289.349 270.067 288.574 270.858 287.591 271.425C286.624 271.975 285.574 272.25 284.441 272.25C281.674 272.25 280.291 270.375 280.291 266.625ZM301.76 260.475C300.626 260.508 299.626 260.825 298.76 261.425C297.91 262.025 297.31 262.85 296.96 263.9V272H295.26V258.975H296.86V262.1C297.31 261.183 297.901 260.442 298.635 259.875C299.385 259.308 300.176 258.992 301.01 258.925C301.176 258.908 301.318 258.9 301.435 258.9C301.551 258.9 301.66 258.908 301.76 258.925V260.475ZM310.436 260.325H308.636V258.975H310.436V258.625C310.436 257.808 310.594 257.008 310.911 256.225C311.244 255.442 311.744 254.792 312.411 254.275C313.094 253.758 313.969 253.5 315.036 253.5C315.952 253.5 316.736 253.642 317.386 253.925C318.052 254.208 318.527 254.458 318.811 254.675L318.036 255.9C317.752 255.65 317.352 255.442 316.836 255.275C316.319 255.092 315.752 255 315.136 255C314.419 255 313.844 255.183 313.411 255.55C312.977 255.9 312.652 256.35 312.436 256.9C312.236 257.45 312.136 258.008 312.136 258.575V258.975H318.661V272H316.961V260.325H312.136V272H310.436V260.325ZM328.908 260.475C327.775 260.508 326.775 260.825 325.908 261.425C325.058 262.025 324.458 262.85 324.108 263.9V272H322.408V258.975H324.008V262.1C324.458 261.183 325.05 260.442 325.783 259.875C326.533 259.308 327.325 258.992 328.158 258.925C328.325 258.908 328.467 258.9 328.583 258.9C328.7 258.9 328.808 258.908 328.908 258.925V260.475ZM335.448 272.25C334.381 272.25 333.39 272.075 332.473 271.725C331.573 271.358 330.781 270.825 330.098 270.125L330.798 268.925C331.531 269.608 332.265 270.108 332.998 270.425C333.748 270.725 334.54 270.875 335.373 270.875C336.373 270.875 337.19 270.675 337.823 270.275C338.473 269.858 338.798 269.267 338.798 268.5C338.798 267.983 338.64 267.592 338.323 267.325C338.023 267.042 337.581 266.817 336.998 266.65C336.431 266.483 335.748 266.292 334.948 266.075C334.048 265.825 333.29 265.567 332.673 265.3C332.073 265.017 331.615 264.667 331.298 264.25C330.998 263.817 330.848 263.258 330.848 262.575C330.848 261.742 331.056 261.042 331.473 260.475C331.906 259.908 332.49 259.483 333.223 259.2C333.973 258.9 334.806 258.75 335.723 258.75C336.723 258.75 337.606 258.908 338.373 259.225C339.14 259.542 339.765 259.983 340.248 260.55L339.423 261.7C338.973 261.167 338.415 260.775 337.748 260.525C337.098 260.258 336.39 260.125 335.623 260.125C335.09 260.125 334.581 260.2 334.098 260.35C333.615 260.483 333.215 260.717 332.898 261.05C332.598 261.367 332.448 261.808 332.448 262.375C332.448 263.075 332.706 263.558 333.223 263.825C333.74 264.092 334.523 264.375 335.573 264.675C336.556 264.942 337.415 265.208 338.148 265.475C338.881 265.742 339.448 266.1 339.848 266.55C340.248 266.983 340.448 267.592 340.448 268.375C340.448 269.592 339.99 270.542 339.073 271.225C338.156 271.908 336.948 272.25 335.448 272.25ZM349.508 271.375C349.308 271.458 348.941 271.608 348.408 271.825C347.874 272.042 347.258 272.15 346.558 272.15C345.824 272.15 345.183 271.942 344.633 271.525C344.083 271.108 343.808 270.483 343.808 269.65V260.325H342.008V258.975H343.808V254.575H345.508V258.975H348.508V260.325H345.508V269.175C345.541 269.658 345.708 270.017 346.008 270.25C346.324 270.467 346.683 270.575 347.083 270.575C347.549 270.575 347.966 270.5 348.333 270.35C348.716 270.183 348.958 270.067 349.058 270L349.508 271.375ZM364.654 272.25C363.571 272.25 362.596 271.967 361.729 271.4C360.879 270.833 360.204 270.133 359.704 269.3V277.325H358.004V258.975H359.529V261.5C360.046 260.683 360.729 260.025 361.579 259.525C362.446 259.008 363.379 258.75 364.379 258.75C365.279 258.75 366.104 258.942 366.854 259.325C367.604 259.692 368.254 260.192 368.804 260.825C369.371 261.458 369.804 262.183 370.104 263C370.404 263.8 370.554 264.633 370.554 265.5C370.554 266.717 370.304 267.842 369.804 268.875C369.321 269.892 368.629 270.708 367.729 271.325C366.846 271.942 365.821 272.25 364.654 272.25ZM364.179 270.75C365.129 270.75 365.946 270.5 366.629 270C367.329 269.483 367.871 268.825 368.254 268.025C368.637 267.225 368.829 266.383 368.829 265.5C368.829 264.567 368.612 263.7 368.179 262.9C367.746 262.1 367.162 261.458 366.429 260.975C365.712 260.492 364.896 260.25 363.979 260.25C363.412 260.25 362.812 260.4 362.179 260.7C361.562 260.983 361.012 261.375 360.529 261.875C360.062 262.358 359.787 262.892 359.704 263.475V267.475C360.087 268.392 360.687 269.167 361.504 269.8C362.321 270.433 363.212 270.75 364.179 270.75ZM379.934 260.475C378.8 260.508 377.8 260.825 376.934 261.425C376.084 262.025 375.484 262.85 375.134 263.9V272H373.434V258.975H375.034V262.1C375.484 261.183 376.075 260.442 376.809 259.875C377.559 259.308 378.35 258.992 379.184 258.925C379.35 258.908 379.492 258.9 379.609 258.9C379.725 258.9 379.834 258.908 379.934 258.925V260.475ZM382.198 256.25V253.75H383.898V256.25H382.198ZM382.198 272V258.975H383.898V272H382.198ZM393.193 272.25C391.943 272.25 390.826 271.942 389.843 271.325C388.876 270.708 388.118 269.892 387.568 268.875C387.018 267.842 386.743 266.725 386.743 265.525C386.743 264.308 387.018 263.192 387.568 262.175C388.134 261.142 388.901 260.317 389.868 259.7C390.851 259.067 391.959 258.75 393.193 258.75C394.443 258.75 395.551 259.067 396.518 259.7C397.501 260.317 398.268 261.142 398.818 262.175C399.384 263.192 399.668 264.308 399.668 265.525C399.668 266.725 399.393 267.842 398.843 268.875C398.293 269.892 397.526 270.708 396.543 271.325C395.576 271.942 394.459 272.25 393.193 272.25ZM388.468 265.55C388.468 266.517 388.676 267.4 389.093 268.2C389.526 268.983 390.101 269.608 390.818 270.075C391.534 270.525 392.326 270.75 393.193 270.75C394.059 270.75 394.851 270.517 395.568 270.05C396.284 269.583 396.859 268.95 397.293 268.15C397.726 267.35 397.943 266.467 397.943 265.5C397.943 264.533 397.726 263.65 397.293 262.85C396.859 262.05 396.284 261.417 395.568 260.95C394.851 260.483 394.059 260.25 393.193 260.25C392.343 260.25 391.559 260.492 390.843 260.975C390.126 261.442 389.551 262.075 389.118 262.875C388.684 263.675 388.468 264.567 388.468 265.55ZM409.011 260.475C407.877 260.508 406.877 260.825 406.011 261.425C405.161 262.025 404.561 262.85 404.211 263.9V272H402.511V258.975H404.111V262.1C404.561 261.183 405.152 260.442 405.886 259.875C406.636 259.308 407.427 258.992 408.261 258.925C408.427 258.908 408.569 258.9 408.686 258.9C408.802 258.9 408.911 258.908 409.011 258.925V260.475ZM411.275 256.25V253.75H412.975V256.25H411.275ZM411.275 272V258.975H412.975V272H411.275ZM422.97 271.375C422.77 271.458 422.403 271.608 421.87 271.825C421.336 272.042 420.72 272.15 420.02 272.15C419.286 272.15 418.645 271.942 418.095 271.525C417.545 271.108 417.27 270.483 417.27 269.65V260.325H415.47V258.975H417.27V254.575H418.97V258.975H421.97V260.325H418.97V269.175C419.003 269.658 419.17 270.017 419.47 270.25C419.786 270.467 420.145 270.575 420.545 270.575C421.011 270.575 421.428 270.5 421.795 270.35C422.178 270.183 422.42 270.067 422.52 270L422.97 271.375ZM425.844 276C426.077 276.017 426.302 276.025 426.519 276.025C426.735 276.042 426.894 276.033 426.994 276C427.194 275.983 427.377 275.867 427.544 275.65C427.727 275.45 427.944 275.067 428.194 274.5C428.46 273.95 428.819 273.117 429.269 272L423.594 258.975H425.394L430.169 270.25L434.569 258.975H436.269L429.519 275.775C429.335 276.258 429.027 276.675 428.594 277.025C428.16 277.375 427.585 277.558 426.869 277.575C426.719 277.592 426.56 277.592 426.394 277.575C426.227 277.575 426.044 277.558 425.844 277.525V276ZM436.489 272V269.55H437.964V272H436.489Z" fill="white"/>
</svg>
