<svg width="143" height="16" viewBox="0 0 143 16" fill="none" xmlns="http://www.w3.org/2000/svg">
<path d="M12.0743 11.34C12.0743 12.14 11.8676 12.8133 11.4543 13.36C11.041 13.8933 10.481 14.3 9.7743 14.58C9.08096 14.86 8.32096 15 7.4943 15H0.634297V0.799999H8.2343C8.90096 0.799999 9.4743 0.979999 9.9543 1.34C10.4343 1.68667 10.8076 2.14 11.0743 2.7C11.341 3.26 11.4743 3.83333 11.4743 4.42C11.4743 5.11333 11.301 5.76667 10.9543 6.38C10.6076 6.98 10.101 7.42667 9.4343 7.72C10.2476 7.96 10.8876 8.39333 11.3543 9.02C11.8343 9.64667 12.0743 10.42 12.0743 11.34ZM3.3943 3.16V6.74H7.0743C7.52763 6.74 7.92096 6.58 8.2543 6.26C8.58763 5.94 8.7543 5.5 8.7543 4.94C8.7543 4.40667 8.60096 3.98 8.2943 3.66C8.00096 3.32667 7.6343 3.16 7.1943 3.16H3.3943ZM9.2943 10.82C9.2943 10.3 9.1343 9.85333 8.8143 9.48C8.4943 9.10667 8.10096 8.92 7.6343 8.92H3.3943V12.66H7.4943C8.00096 12.66 8.42763 12.48 8.7743 12.12C9.12096 11.76 9.2943 11.3267 9.2943 10.82ZM13.829 11.08V4.52H16.509V10.5C16.509 12.1133 17.089 12.92 18.249 12.92C18.769 12.92 19.269 12.7667 19.749 12.46C20.2423 12.14 20.6423 11.66 20.949 11.02V4.52H23.629V12C23.629 12.2933 23.6757 12.5 23.769 12.62C23.8623 12.7267 24.029 12.7933 24.269 12.82V15C24.0023 15.0533 23.7757 15.0867 23.589 15.1C23.4157 15.1133 23.2557 15.12 23.109 15.12C22.629 15.12 22.2357 15.0133 21.929 14.8C21.6357 14.5733 21.4623 14.2667 21.409 13.88L21.349 13.04C20.8823 13.76 20.2823 14.3 19.549 14.66C18.8157 15.02 18.009 15.2 17.129 15.2C16.049 15.2 15.229 14.8533 14.669 14.16C14.109 13.4533 13.829 12.4267 13.829 11.08ZM30.1523 15.2C29.2589 15.2 28.4056 15.0533 27.5923 14.76C26.7789 14.4667 26.0789 14.0333 25.4923 13.46L26.4523 11.72C27.0789 12.2267 27.6923 12.6 28.2923 12.84C28.8923 13.08 29.4789 13.2 30.0523 13.2C30.5723 13.2 30.9856 13.1067 31.2923 12.92C31.6123 12.7333 31.7723 12.4533 31.7723 12.08C31.7723 11.6933 31.5789 11.4333 31.1923 11.3C30.8056 11.1533 30.2656 10.9733 29.5723 10.76C28.7989 10.52 28.1523 10.2733 27.6323 10.02C27.1123 9.76667 26.7189 9.46 26.4523 9.1C26.1989 8.74 26.0723 8.27333 26.0723 7.7C26.0723 6.67333 26.4589 5.85333 27.2323 5.24C28.0056 4.62667 29.0323 4.32 30.3123 4.32C31.0589 4.32 31.7656 4.44 32.4323 4.68C33.0989 4.90667 33.7056 5.28 34.2523 5.8L33.1723 7.5C32.1456 6.7 31.1523 6.3 30.1923 6.3C29.7656 6.3 29.3856 6.38 29.0523 6.54C28.7323 6.7 28.5723 6.98 28.5723 7.38C28.5723 7.75333 28.7256 8.02 29.0323 8.18C29.3523 8.34 29.8323 8.51333 30.4723 8.7C31.2989 8.95333 31.9989 9.2 32.5723 9.44C33.1589 9.68 33.5989 9.98667 33.8923 10.36C34.1989 10.7333 34.3523 11.24 34.3523 11.88C34.3523 12.92 33.9723 13.7333 33.2123 14.32C32.4523 14.9067 31.4323 15.2 30.1523 15.2ZM36.1751 3.06V0.4H38.8551V3.06H36.1751ZM36.1751 15V4.52H38.8551V15H36.1751ZM51.0127 15H48.3327V9.12C48.3327 8.28 48.1861 7.66667 47.8927 7.28C47.5994 6.89333 47.1927 6.7 46.6727 6.7C46.3127 6.7 45.9461 6.79333 45.5727 6.98C45.2127 7.16667 44.8861 7.42667 44.5927 7.76C44.2994 8.08 44.0861 8.45333 43.9527 8.88V15H41.2727V4.52H43.6927V6.46C44.0794 5.80667 44.6394 5.29333 45.3727 4.92C46.1061 4.53333 46.9327 4.34 47.8527 4.34C48.5061 4.34 49.0394 4.46 49.4527 4.7C49.8661 4.92667 50.1861 5.24 50.4127 5.64C50.6394 6.02667 50.7927 6.46667 50.8727 6.96C50.9661 7.45333 51.0127 7.95333 51.0127 8.46V15ZM58.203 15.2C57.0697 15.2 56.0897 14.9533 55.263 14.46C54.4497 13.9667 53.8164 13.3133 53.363 12.5C52.9097 11.6733 52.683 10.78 52.683 9.82C52.683 8.83333 52.903 7.92667 53.343 7.1C53.7964 6.26 54.4364 5.59333 55.263 5.1C56.0897 4.59333 57.0764 4.34 58.223 4.34C59.3697 4.34 60.3497 4.59333 61.163 5.1C61.9764 5.59333 62.5964 6.25333 63.023 7.08C63.463 7.89333 63.683 8.77333 63.683 9.72C63.683 10.0667 63.663 10.3667 63.623 10.62H55.523C55.5897 11.4333 55.8897 12.0733 56.423 12.54C56.9697 13.0067 57.5964 13.24 58.303 13.24C58.8364 13.24 59.3364 13.1133 59.803 12.86C60.283 12.5933 60.6097 12.2467 60.783 11.82L63.083 12.46C62.6964 13.26 62.0764 13.92 61.223 14.44C60.3697 14.9467 59.363 15.2 58.203 15.2ZM55.463 8.92H60.943C60.863 8.13333 60.563 7.5 60.043 7.02C59.5364 6.52667 58.9164 6.28 58.183 6.28C57.463 6.28 56.843 6.52667 56.323 7.02C55.8164 7.5 55.5297 8.13333 55.463 8.92ZM69.1757 15.2C68.2824 15.2 67.429 15.0533 66.6157 14.76C65.8024 14.4667 65.1024 14.0333 64.5157 13.46L65.4757 11.72C66.1024 12.2267 66.7157 12.6 67.3157 12.84C67.9157 13.08 68.5024 13.2 69.0757 13.2C69.5957 13.2 70.009 13.1067 70.3157 12.92C70.6357 12.7333 70.7957 12.4533 70.7957 12.08C70.7957 11.6933 70.6024 11.4333 70.2157 11.3C69.829 11.1533 69.289 10.9733 68.5957 10.76C67.8224 10.52 67.1757 10.2733 66.6557 10.02C66.1357 9.76667 65.7424 9.46 65.4757 9.1C65.2224 8.74 65.0957 8.27333 65.0957 7.7C65.0957 6.67333 65.4824 5.85333 66.2557 5.24C67.029 4.62667 68.0557 4.32 69.3357 4.32C70.0824 4.32 70.789 4.44 71.4557 4.68C72.1224 4.90667 72.729 5.28 73.2757 5.8L72.1957 7.5C71.169 6.7 70.1757 6.3 69.2157 6.3C68.789 6.3 68.409 6.38 68.0757 6.54C67.7557 6.7 67.5957 6.98 67.5957 7.38C67.5957 7.75333 67.749 8.02 68.0557 8.18C68.3757 8.34 68.8557 8.51333 69.4957 8.7C70.3224 8.95333 71.0224 9.2 71.5957 9.44C72.1824 9.68 72.6224 9.98667 72.9157 10.36C73.2224 10.7333 73.3757 11.24 73.3757 11.88C73.3757 12.92 72.9957 13.7333 72.2357 14.32C71.4757 14.9067 70.4557 15.2 69.1757 15.2ZM79.0585 15.2C78.1652 15.2 77.3118 15.0533 76.4985 14.76C75.6852 14.4667 74.9852 14.0333 74.3985 13.46L75.3585 11.72C75.9852 12.2267 76.5985 12.6 77.1985 12.84C77.7985 13.08 78.3852 13.2 78.9585 13.2C79.4785 13.2 79.8918 13.1067 80.1985 12.92C80.5185 12.7333 80.6785 12.4533 80.6785 12.08C80.6785 11.6933 80.4852 11.4333 80.0985 11.3C79.7118 11.1533 79.1718 10.9733 78.4785 10.76C77.7052 10.52 77.0585 10.2733 76.5385 10.02C76.0185 9.76667 75.6252 9.46 75.3585 9.1C75.1052 8.74 74.9785 8.27333 74.9785 7.7C74.9785 6.67333 75.3652 5.85333 76.1385 5.24C76.9118 4.62667 77.9385 4.32 79.2185 4.32C79.9652 4.32 80.6718 4.44 81.3385 4.68C82.0052 4.90667 82.6118 5.28 83.1585 5.8L82.0785 7.5C81.0518 6.7 80.0585 6.3 79.0985 6.3C78.6718 6.3 78.2918 6.38 77.9585 6.54C77.6385 6.7 77.4785 6.98 77.4785 7.38C77.4785 7.75333 77.6318 8.02 77.9385 8.18C78.2585 8.34 78.7385 8.51333 79.3785 8.7C80.2052 8.95333 80.9052 9.2 81.4785 9.44C82.0652 9.68 82.5052 9.98667 82.7985 10.36C83.1052 10.7333 83.2585 11.24 83.2585 11.88C83.2585 12.92 82.8785 13.7333 82.1185 14.32C81.3585 14.9067 80.3385 15.2 79.0585 15.2ZM99.626 15H96.946V9.12C96.946 8.30667 96.786 7.7 96.466 7.3C96.1593 6.9 95.7327 6.7 95.186 6.7C94.8527 6.7 94.506 6.79333 94.146 6.98C93.7993 7.16667 93.4793 7.42667 93.186 7.76C92.906 8.08 92.6993 8.45333 92.566 8.88V15H89.886V0.4H92.566V6.46C92.9527 5.79333 93.4793 5.27333 94.146 4.9C94.8127 4.52667 95.5393 4.34 96.326 4.34C97.2193 4.34 97.906 4.54 98.386 4.94C98.866 5.34 99.1927 5.85333 99.366 6.48C99.5393 7.10667 99.626 7.76667 99.626 8.46V15ZM106.796 15.2C105.65 15.2 104.663 14.9533 103.836 14.46C103.023 13.9533 102.396 13.2867 101.956 12.46C101.516 11.6333 101.296 10.74 101.296 9.78C101.296 8.80667 101.516 7.90667 101.956 7.08C102.41 6.25333 103.043 5.59333 103.856 5.1C104.683 4.59333 105.663 4.34 106.796 4.34C107.93 4.34 108.903 4.59333 109.716 5.1C110.543 5.59333 111.176 6.25333 111.616 7.08C112.056 7.90667 112.276 8.80667 112.276 9.78C112.276 10.74 112.056 11.6333 111.616 12.46C111.176 13.2867 110.543 13.9533 109.716 14.46C108.903 14.9533 107.93 15.2 106.796 15.2ZM104.056 9.78C104.056 10.3933 104.176 10.94 104.416 11.42C104.656 11.8867 104.983 12.2533 105.396 12.52C105.81 12.7867 106.276 12.92 106.796 12.92C107.303 12.92 107.763 12.7867 108.176 12.52C108.59 12.24 108.916 11.8667 109.156 11.4C109.41 10.92 109.536 10.3733 109.536 9.76C109.536 9.16 109.41 8.62667 109.156 8.16C108.916 7.68 108.59 7.30667 108.176 7.04C107.763 6.76 107.303 6.62 106.796 6.62C106.276 6.62 105.81 6.76 105.396 7.04C104.983 7.30667 104.656 7.68 104.416 8.16C104.176 8.62667 104.056 9.16667 104.056 9.78ZM113.985 11.08V4.52H116.665V10.5C116.665 12.1133 117.245 12.92 118.405 12.92C118.925 12.92 119.425 12.7667 119.905 12.46C120.399 12.14 120.799 11.66 121.105 11.02V4.52H123.785V12C123.785 12.2933 123.832 12.5 123.925 12.62C124.019 12.7267 124.185 12.7933 124.425 12.82V15C124.159 15.0533 123.932 15.0867 123.745 15.1C123.572 15.1133 123.412 15.12 123.265 15.12C122.785 15.12 122.392 15.0133 122.085 14.8C121.792 14.5733 121.619 14.2667 121.565 13.88L121.505 13.04C121.039 13.76 120.439 14.3 119.705 14.66C118.972 15.02 118.165 15.2 117.285 15.2C116.205 15.2 115.385 14.8533 114.825 14.16C114.265 13.4533 113.985 12.4267 113.985 11.08ZM132.689 6.84C131.875 6.84 131.149 7 130.509 7.32C129.869 7.62667 129.409 8.07333 129.129 8.66V15H126.449V4.52H128.909V6.76C129.269 6.04 129.735 5.47333 130.309 5.06C130.895 4.64667 131.509 4.42 132.149 4.38C132.429 4.38 132.609 4.38667 132.689 4.4V6.84ZM138.043 15.2C137.15 15.2 136.296 15.0533 135.483 14.76C134.67 14.4667 133.97 14.0333 133.383 13.46L134.343 11.72C134.97 12.2267 135.583 12.6 136.183 12.84C136.783 13.08 137.37 13.2 137.943 13.2C138.463 13.2 138.876 13.1067 139.183 12.92C139.503 12.7333 139.663 12.4533 139.663 12.08C139.663 11.6933 139.47 11.4333 139.083 11.3C138.696 11.1533 138.156 10.9733 137.463 10.76C136.69 10.52 136.043 10.2733 135.523 10.02C135.003 9.76667 134.61 9.46 134.343 9.1C134.09 8.74 133.963 8.27333 133.963 7.7C133.963 6.67333 134.35 5.85333 135.123 5.24C135.896 4.62667 136.923 4.32 138.203 4.32C138.95 4.32 139.656 4.44 140.323 4.68C140.99 4.90667 141.596 5.28 142.143 5.8L141.063 7.5C140.036 6.7 139.043 6.3 138.083 6.3C137.656 6.3 137.276 6.38 136.943 6.54C136.623 6.7 136.463 6.98 136.463 7.38C136.463 7.75333 136.616 8.02 136.923 8.18C137.243 8.34 137.723 8.51333 138.363 8.7C139.19 8.95333 139.89 9.2 140.463 9.44C141.05 9.68 141.49 9.98667 141.783 10.36C142.09 10.7333 142.243 11.24 142.243 11.88C142.243 12.92 141.863 13.7333 141.103 14.32C140.343 14.9067 139.323 15.2 138.043 15.2Z" fill="#464558"/>
</svg>
