<svg width="130" height="20" viewBox="0 0 130 20" fill="none" xmlns="http://www.w3.org/2000/svg">
<path d="M12.5001 0.799999V15H9.76008V8.94H3.32008V15H0.560078V0.799999H3.32008V6.54H9.76008V0.799999H12.5001ZM14.3652 11.9C14.3652 11.22 14.5519 10.6267 14.9252 10.12C15.3119 9.6 15.8452 9.2 16.5252 8.92C17.2052 8.64 17.9852 8.5 18.8652 8.5C19.3052 8.5 19.7519 8.54 20.2052 8.62C20.6586 8.68667 21.0519 8.78667 21.3852 8.92V8.36C21.3852 7.69333 21.1852 7.18 20.7852 6.82C20.3986 6.46 19.8186 6.28 19.0452 6.28C18.4719 6.28 17.9252 6.38 17.4052 6.58C16.8852 6.78 16.3386 7.07333 15.7652 7.46L14.9052 5.7C15.5986 5.24667 16.3052 4.90667 17.0252 4.68C17.7586 4.45333 18.5252 4.34 19.3252 4.34C20.8186 4.34 21.9786 4.71333 22.8052 5.46C23.6452 6.20667 24.0652 7.27333 24.0652 8.66V12C24.0652 12.2933 24.1119 12.5 24.2052 12.62C24.2986 12.7267 24.4652 12.7933 24.7052 12.82V15C24.4652 15.0533 24.2452 15.0867 24.0452 15.1C23.8586 15.1267 23.6986 15.14 23.5652 15.14C23.0319 15.14 22.6252 15.02 22.3452 14.78C22.0652 14.54 21.8986 14.2467 21.8452 13.9L21.7852 13.36C21.3186 13.96 20.7452 14.42 20.0652 14.74C19.3986 15.0467 18.7119 15.2 18.0052 15.2C17.2986 15.2 16.6719 15.06 16.1252 14.78C15.5786 14.4867 15.1452 14.0933 14.8252 13.6C14.5186 13.0933 14.3652 12.5267 14.3652 11.9ZM20.8852 12.44C21.2186 12.12 21.3852 11.8133 21.3852 11.52V10.46C20.6919 10.18 19.9919 10.04 19.2852 10.04C18.5786 10.04 18.0052 10.1933 17.5652 10.5C17.1252 10.7933 16.9052 11.1867 16.9052 11.68C16.9052 12.08 17.0652 12.44 17.3852 12.76C17.7052 13.08 18.1652 13.24 18.7652 13.24C19.1652 13.24 19.5519 13.1667 19.9252 13.02C20.3119 12.8733 20.6319 12.68 20.8852 12.44ZM32.8496 15.2C32.0229 15.2 31.3029 15.0133 30.6896 14.64C30.0763 14.2667 29.5963 13.7733 29.2496 13.16V19.26H26.5696V4.52H28.9096V6.32C29.2963 5.70667 29.7963 5.22667 30.4096 4.88C31.0363 4.52 31.7429 4.34 32.5296 4.34C33.4763 4.34 34.3163 4.58667 35.0496 5.08C35.7829 5.56 36.3629 6.21333 36.7896 7.04C37.2163 7.85333 37.4296 8.75333 37.4296 9.74C37.4296 10.7667 37.2296 11.6933 36.8296 12.52C36.4429 13.3333 35.9029 13.9867 35.2096 14.48C34.5296 14.96 33.7429 15.2 32.8496 15.2ZM31.9496 12.92C32.4963 12.92 32.9696 12.7733 33.3696 12.48C33.7829 12.1733 34.1029 11.78 34.3296 11.3C34.5696 10.8067 34.6896 10.2867 34.6896 9.74C34.6896 9.15333 34.5629 8.62667 34.3096 8.16C34.0563 7.68 33.7096 7.30667 33.2696 7.04C32.8429 6.76 32.3496 6.62 31.7896 6.62C31.2829 6.62 30.7763 6.78667 30.2696 7.12C29.7629 7.45333 29.4229 7.87333 29.2496 8.38V10.84C29.4896 11.4267 29.8563 11.92 30.3496 12.32C30.8429 12.72 31.3763 12.92 31.9496 12.92ZM45.5254 15.2C44.6987 15.2 43.9787 15.0133 43.3654 14.64C42.7521 14.2667 42.2721 13.7733 41.9254 13.16V19.26H39.2454V4.52H41.5854V6.32C41.9721 5.70667 42.4721 5.22667 43.0854 4.88C43.7121 4.52 44.4187 4.34 45.2054 4.34C46.1521 4.34 46.9921 4.58667 47.7254 5.08C48.4587 5.56 49.0387 6.21333 49.4654 7.04C49.8921 7.85333 50.1054 8.75333 50.1054 9.74C50.1054 10.7667 49.9054 11.6933 49.5054 12.52C49.1187 13.3333 48.5787 13.9867 47.8854 14.48C47.2054 14.96 46.4187 15.2 45.5254 15.2ZM44.6254 12.92C45.1721 12.92 45.6454 12.7733 46.0454 12.48C46.4587 12.1733 46.7787 11.78 47.0054 11.3C47.2454 10.8067 47.3654 10.2867 47.3654 9.74C47.3654 9.15333 47.2387 8.62667 46.9854 8.16C46.7321 7.68 46.3854 7.30667 45.9454 7.04C45.5187 6.76 45.0254 6.62 44.4654 6.62C43.9587 6.62 43.4521 6.78667 42.9454 7.12C42.4387 7.45333 42.0987 7.87333 41.9254 8.38V10.84C42.1654 11.4267 42.5321 11.92 43.0254 12.32C43.5187 12.72 44.0521 12.92 44.6254 12.92ZM51.7896 17.04C52.2829 17.1733 52.6829 17.24 52.9896 17.24C53.3496 17.24 53.6363 17.0867 53.8496 16.78C54.0763 16.4867 54.3296 15.8933 54.6096 15L50.4696 4.52H53.2496L56.0696 12.26L58.5496 4.52H61.1096L56.7096 17.08C56.4696 17.8 56.0363 18.3933 55.4096 18.86C54.7963 19.34 54.0363 19.58 53.1296 19.58C52.6896 19.58 52.2429 19.5067 51.7896 19.36V17.04ZM71.7426 15.2C70.6092 15.2 69.6292 14.9467 68.8026 14.44C67.9759 13.9333 67.3359 13.2667 66.8826 12.44C66.4292 11.6133 66.2026 10.72 66.2026 9.76C66.2026 8.78667 66.4226 7.88667 66.8626 7.06C67.3159 6.23333 67.9559 5.57333 68.7826 5.08C69.6092 4.58667 70.5892 4.34 71.7226 4.34C72.8692 4.34 73.8426 4.58667 74.6426 5.08C75.4559 5.57333 76.0626 6.22 76.4626 7.02L73.8426 7.82C73.3759 7.02 72.6626 6.62 71.7026 6.62C71.1826 6.62 70.7159 6.75333 70.3026 7.02C69.8892 7.27333 69.5626 7.64 69.3226 8.12C69.0826 8.58667 68.9626 9.13333 68.9626 9.76C68.9626 10.3733 69.0826 10.92 69.3226 11.4C69.5759 11.8667 69.9092 12.24 70.3226 12.52C70.7359 12.7867 71.1959 12.92 71.7026 12.92C72.1826 12.92 72.6226 12.8067 73.0226 12.58C73.4359 12.34 73.7226 12.04 73.8826 11.68L76.5026 12.48C76.1426 13.2667 75.5426 13.92 74.7026 14.44C73.8759 14.9467 72.8892 15.2 71.7426 15.2ZM78.1316 0.4H80.8116V11.64C80.8116 12.1333 80.8916 12.46 81.0516 12.62C81.2116 12.78 81.4316 12.86 81.7116 12.86C81.925 12.86 82.145 12.8333 82.3716 12.78C82.5983 12.7267 82.7983 12.66 82.9716 12.58L83.3316 14.62C82.9716 14.7933 82.5516 14.9267 82.0716 15.02C81.5916 15.1133 81.1583 15.16 80.7716 15.16C79.9316 15.16 79.2783 14.94 78.8116 14.5C78.3583 14.0467 78.1316 13.4067 78.1316 12.58V0.4ZM84.4993 3.06V0.4H87.1793V3.06H84.4993ZM84.4993 15V4.52H87.1793V15H84.4993ZM94.457 15.2C93.3236 15.2 92.3436 14.9533 91.517 14.46C90.7036 13.9667 90.0703 13.3133 89.617 12.5C89.1636 11.6733 88.937 10.78 88.937 9.82C88.937 8.83333 89.157 7.92667 89.597 7.1C90.0503 6.26 90.6903 5.59333 91.517 5.1C92.3436 4.59333 93.3303 4.34 94.477 4.34C95.6236 4.34 96.6036 4.59333 97.417 5.1C98.2303 5.59333 98.8503 6.25333 99.277 7.08C99.717 7.89333 99.937 8.77333 99.937 9.72C99.937 10.0667 99.917 10.3667 99.877 10.62H91.777C91.8436 11.4333 92.1436 12.0733 92.677 12.54C93.2236 13.0067 93.8503 13.24 94.557 13.24C95.0903 13.24 95.5903 13.1133 96.057 12.86C96.537 12.5933 96.8636 12.2467 97.037 11.82L99.337 12.46C98.9503 13.26 98.3303 13.92 97.477 14.44C96.6236 14.9467 95.617 15.2 94.457 15.2ZM91.717 8.92H97.197C97.117 8.13333 96.817 7.5 96.297 7.02C95.7903 6.52667 95.1703 6.28 94.437 6.28C93.717 6.28 93.097 6.52667 92.577 7.02C92.0703 7.5 91.7836 8.13333 91.717 8.92ZM111.31 15H108.63V9.12C108.63 8.28 108.483 7.66667 108.19 7.28C107.896 6.89333 107.49 6.7 106.97 6.7C106.61 6.7 106.243 6.79333 105.87 6.98C105.51 7.16667 105.183 7.42667 104.89 7.76C104.596 8.08 104.383 8.45333 104.25 8.88V15H101.57V4.52H103.99V6.46C104.376 5.80667 104.936 5.29333 105.67 4.92C106.403 4.53333 107.23 4.34 108.15 4.34C108.803 4.34 109.336 4.46 109.75 4.7C110.163 4.92667 110.483 5.24 110.71 5.64C110.936 6.02667 111.09 6.46667 111.17 6.96C111.263 7.45333 111.31 7.95333 111.31 8.46V15ZM119.861 14.46C119.501 14.62 119.055 14.78 118.521 14.94C118.001 15.1 117.461 15.18 116.901 15.18C116.408 15.18 115.955 15.0933 115.541 14.92C115.128 14.7467 114.795 14.4733 114.541 14.1C114.301 13.7133 114.181 13.2133 114.181 12.6V6.58H112.801V4.52H114.181V1.12H116.861V4.52H119.061V6.58H116.861V11.7C116.861 12.06 116.955 12.32 117.141 12.48C117.341 12.64 117.581 12.72 117.861 12.72C118.141 12.72 118.415 12.6733 118.681 12.58C118.948 12.4867 119.161 12.4067 119.321 12.34L119.861 14.46ZM125.117 15.2C124.224 15.2 123.37 15.0533 122.557 14.76C121.744 14.4667 121.044 14.0333 120.457 13.46L121.417 11.72C122.044 12.2267 122.657 12.6 123.257 12.84C123.857 13.08 124.444 13.2 125.017 13.2C125.537 13.2 125.95 13.1067 126.257 12.92C126.577 12.7333 126.737 12.4533 126.737 12.08C126.737 11.6933 126.544 11.4333 126.157 11.3C125.77 11.1533 125.23 10.9733 124.537 10.76C123.764 10.52 123.117 10.2733 122.597 10.02C122.077 9.76667 121.684 9.46 121.417 9.1C121.164 8.74 121.037 8.27333 121.037 7.7C121.037 6.67333 121.424 5.85333 122.197 5.24C122.97 4.62667 123.997 4.32 125.277 4.32C126.024 4.32 126.73 4.44 127.397 4.68C128.064 4.90667 128.67 5.28 129.217 5.8L128.137 7.5C127.11 6.7 126.117 6.3 125.157 6.3C124.73 6.3 124.35 6.38 124.017 6.54C123.697 6.7 123.537 6.98 123.537 7.38C123.537 7.75333 123.69 8.02 123.997 8.18C124.317 8.34 124.797 8.51333 125.437 8.7C126.264 8.95333 126.964 9.2 127.537 9.44C128.124 9.68 128.564 9.98667 128.857 10.36C129.164 10.7333 129.317 11.24 129.317 11.88C129.317 12.92 128.937 13.7333 128.177 14.32C127.417 14.9067 126.397 15.2 125.117 15.2Z" fill="#464558"/>
</svg>
